<svg width="84" height="50" viewBox="0 0 84 50" fill="none" xmlns="http://www.w3.org/2000/svg">
<path d="M58.9175 23.4696C61.4165 27.1015 65.197 28.4396 67.1833 28.2485C69.3619 28.0573 70.9639 25.8909 70.195 24.1068C69.298 22.004 67.1193 21.1757 64.8767 21.3669C62.9544 21.558 60.9039 22.2589 58.9175 23.4696ZM54.4322 27.1015C53.0866 28.5033 51.9332 30.0963 50.908 31.8804C49.5624 34.3017 46.4227 37.6788 43.4111 38.2523C40.6558 38.8257 36.2986 37.0416 34.8889 32.8362C36.9394 28.3122 40.9122 23.2147 42.6422 21.3669C42.9626 21.0483 43.5393 20.4111 44.3722 19.6465C46.4868 17.7349 50.0109 14.8039 54.2399 12.6374C56.6748 11.3631 59.3661 10.4073 62.1214 10.0887C65.5174 9.70638 72.3736 9.57894 76.4104 12.956C82.6258 18.1172 84.0996 31.1795 77.0512 36.7867C70.8998 41.6931 60.1991 41.247 58.3409 36.0221H58.2768C58.2127 31.753 55.137 27.8661 54.4322 27.1015Z" fill="#FFF8E8"/>
<path d="M58.2768 36.1496C58.2768 36.7231 58.2768 37.3602 58.1487 37.9974C57.1235 43.4772 51.9333 46.918 47.448 47.7464C40.9763 48.957 33.6715 46.5357 30.2755 43.4135C28.8658 42.1391 27.5842 40.7373 26.4949 39.2718C23.9959 35.9584 22.3941 32.6451 21.4971 30.861C21.8815 30.7972 22.2659 30.7335 22.6503 30.6061C25.726 29.9052 27.6484 28.7582 30.9163 26.9741C32.1337 29.714 33.3511 31.5619 34.889 32.8999C36.2986 37.1054 40.6559 38.8258 43.4111 38.316C46.4227 37.7425 49.5624 34.3655 50.908 31.9442C51.8692 30.16 53.0866 28.5671 54.4322 27.1653C55.1371 27.8662 58.2127 31.753 58.2768 36.1496Z" fill="#FFF8E8"/>
<path d="M38.0929 9.96121C34.5046 10.2161 29.3144 11.6179 24.765 14.3578C23.996 14.8038 23.2913 15.2498 22.5864 15.6959C23.5476 9.96121 27.0077 5.24603 30.9163 3.0796C34.5046 1.16805 43.3472 0.722026 47.5762 3.65308C51.5489 6.39297 53.8556 10.9807 54.2401 12.6374C50.011 14.7401 46.4228 17.6711 44.3724 19.6464C44.6928 18.6269 43.9237 12.956 40.5918 10.917C39.5025 10.2798 38.9259 10.0886 38.0929 9.96121Z" fill="#FFF8E8"/>
<path d="M40.5915 10.917C43.9235 12.8922 44.7566 18.6269 44.3721 19.6464C43.5391 20.411 42.9625 20.9845 42.6421 21.3668C40.5276 22.1951 37.9645 23.3421 35.0811 24.7439C33.4792 25.5722 32.1336 26.2731 30.9161 26.9103C27.7123 28.6944 25.7258 29.8414 22.6502 30.5423C22.2016 30.6697 21.8173 30.7334 21.4969 30.7971C21.3688 30.8608 21.2406 30.8608 21.1124 30.9246C19.4464 31.2432 18.5493 31.1157 17.0756 30.4148C15.9222 29.7776 15.0892 28.6307 14.5125 27.2926C13.4873 24.935 14.6407 22.5137 14.8329 22.0677C16.7552 20.1561 19.3182 17.8623 22.6502 15.6321C23.355 15.1861 24.0599 14.7401 24.8289 14.294C29.3783 11.5541 34.5685 10.2161 38.1568 9.89746C38.9257 10.0886 39.5022 10.2798 40.5915 10.917Z" fill="#FFF8E8"/>
<path d="M42.7062 21.3669C40.9762 23.2785 37.0035 28.3123 34.9531 32.8363C33.4152 31.4982 32.1977 29.7141 30.9802 26.9105C32.1336 26.2733 33.4792 25.5086 35.1452 24.744C37.9645 23.3422 40.5917 22.1953 42.7062 21.3669Z" fill="#FFF8E8"/>
<path d="M17.0756 30.4786C18.1649 31.1158 19.5106 31.3707 21.1125 30.9884C21.2406 30.9884 21.3688 30.9246 21.497 30.9246C22.33 32.7725 23.9318 36.0858 26.4948 39.3355C25.9822 39.6541 20.4076 44.1144 11.8214 40.1001C6.24677 37.4876 1.05652 31.2432 2.14582 24.2342C2.2099 23.7244 3.42747 16.3968 10.2836 13.7844C16.6913 11.3631 22.2658 15.3773 22.6502 15.6959C19.3183 17.9261 16.7553 20.1562 14.833 22.1315C14.6407 22.5775 13.4233 24.9988 14.5126 27.3564C15.0893 28.6945 15.9223 29.7777 17.0756 30.4786Z" fill="#FFF8E8"/>
<path d="M21.5611 30.8608C21.433 30.9246 21.3049 30.9246 21.1768 30.9883C21.3049 30.9246 21.433 30.8608 21.5611 30.8608Z" fill="#D22B29"/>
<path d="M21.1767 30.9245C19.5107 31.3068 18.1651 31.052 17.1399 30.4148C18.6136 31.1157 19.5107 31.2431 21.1767 30.9245Z" fill="#D22B29"/>
<path d="M22.6502 15.6958C22.2658 15.3772 16.6913 11.4266 10.2836 13.7842C3.42747 16.333 2.2099 23.6606 2.14582 24.2341C1.1206 31.1794 6.24677 37.4875 11.8214 40.1C20.4076 44.1142 26.0463 39.6539 26.4948 39.3354" stroke="#EBE5D9" stroke-width="2.85" stroke-miterlimit="10"/>
<path d="M38.2209 9.96118C38.1568 9.96118 38.1568 9.96118 38.0928 9.96118C34.5045 10.2161 29.3143 11.6179 24.7649 14.3578C23.9959 14.8038 23.2912 15.2498 22.5863 15.6958C19.2544 17.926 16.6913 20.1561 14.769 22.1314" stroke="#EBE5D9" stroke-width="2.85" stroke-miterlimit="10"/>
<path d="M17.0117 30.4147C17.0758 30.4147 17.0758 30.4147 17.0117 30.4147ZM17.0117 30.4147C18.6136 31.1156 19.4466 31.2431 21.1125 30.9245C21.2407 30.9245 21.3689 30.8608 21.4971 30.8608C21.8815 30.797 22.2659 30.7333 22.6503 30.6059C25.726 29.905 27.6484 28.758 30.9162 26.9739C32.0696 26.3367 33.4152 25.5721 35.0812 24.8075C37.9006 23.4057 40.5277 22.2588 42.6422 21.4304" stroke="#EBE5D9" stroke-width="2.85" stroke-miterlimit="10"/>
<path d="M14.8331 22.1313C14.6409 22.5774 13.4234 24.9987 14.5127 27.3563C15.0894 28.6944 15.9224 29.7776 17.0758 30.4785C18.1651 31.1157 19.5107 31.3705 21.1126 30.9882C21.2408 30.9882 21.369 30.9245 21.4971 30.8608" stroke="#EBE5D9" stroke-width="2.85" stroke-miterlimit="10"/>
<path d="M21.561 30.861C22.4581 32.7088 23.996 36.0222 26.559 39.3355C27.6483 40.7373 28.8657 42.1391 30.3395 43.4772C33.7996 46.5357 41.0402 48.957 47.5119 47.8101C51.9973 46.9817 57.1874 43.5409 58.2127 38.0611C58.3408 37.424 58.3409 36.7868 58.3409 36.2133C58.2128 31.8167 55.2012 27.9299 54.4964 27.1653C54.4323 27.1016 54.4322 27.1016 54.3681 27.0378" stroke="#EBE5D9" stroke-width="2.85" stroke-miterlimit="10"/>
<path d="M34.9531 32.8362C37.0036 28.3122 40.9762 23.2147 42.7063 21.3669C43.0266 21.0483 43.6033 20.4111 44.4363 19.6465C46.5508 17.7349 50.0751 14.8039 54.3041 12.6374C56.739 11.3631 59.4303 10.4073 62.1856 10.0887C65.5816 9.70638 72.4376 9.57894 76.4745 12.956C82.6899 18.1172 84.1636 31.1795 77.1152 36.7867C70.9639 41.6931 60.2632 41.247 58.405 36.0221" stroke="#EBE5D9" stroke-width="2.85" stroke-miterlimit="10"/>
<path d="M58.9175 23.4695C60.9038 22.2588 62.9543 21.5579 64.8766 21.3668C67.1193 21.1756 69.2979 22.0039 70.195 24.1067C70.9639 25.9545 69.3619 28.0572 67.1833 28.2484C65.1969 28.4395 61.4165 27.0377 58.9175 23.4695Z" stroke="#EBE5D9" stroke-width="2.85" stroke-miterlimit="10"/>
<path d="M34.9531 32.8361C36.3628 37.0415 40.7199 38.7619 43.4751 38.2522C46.4867 37.6787 49.6266 34.3016 50.9722 31.8803C51.9333 30.0962 53.1508 28.5032 54.4964 27.1014C55.9061 25.6359 57.3798 24.4253 58.9817 23.4695" stroke="#EBE5D9" stroke-width="2.85" stroke-miterlimit="10"/>
<path d="M54.3042 12.7011C53.9197 11.0444 51.6129 6.45669 47.6402 3.71679C43.4111 0.785742 34.6327 1.23178 30.9803 3.14333C27.0076 5.24604 23.6115 10.0249 22.6504 15.7596" stroke="#EBE5D9" stroke-width="2.85" stroke-miterlimit="10"/>
<path d="M44.3722 19.6464C44.6926 18.6269 43.9236 12.9559 40.5916 10.917C39.5024 10.2798 38.9258 10.0886 38.1569 9.96118C37.7724 9.89746 37.3238 9.83374 36.7471 9.77002" stroke="#EBE5D9" stroke-width="2.85" stroke-miterlimit="10"/>
<path d="M30.9802 26.9741C32.1977 29.714 33.4152 31.5619 34.9531 32.8999" stroke="#EBE5D9" stroke-width="2.85" stroke-miterlimit="10"/>
</svg>
