<svg width="52" height="50" viewBox="0 0 52 50" fill="none" xmlns="http://www.w3.org/2000/svg">
<path d="M38.295 29.3473C37.366 27.8612 35.4461 26.4989 32.5973 25.3844C30.1201 24.3936 27.0235 24.2078 25.7849 24.1459C26.0326 22.7217 26.5281 20.5545 27.8286 18.2014C28.8195 16.4676 29.9343 15.1053 30.9252 14.1765C31.9161 13.6811 33.9598 13.0619 36.1274 12.8142C38.4188 12.5046 40.8341 12.5666 42.6301 13.3715C46.0363 14.8577 50.3715 19.4399 49.5044 25.1367C48.8232 29.595 43.2494 34.7345 38.4188 35.6634C38.7284 32.6911 38.4807 29.9666 38.295 29.3473Z" fill="#C3473D"/>
<path d="M19.344 37.0875C21.0162 35.7253 23.0599 33.558 24.4843 30.3381C25.3513 28.2947 25.599 25.5082 25.7229 24.084C26.9615 24.1459 30.058 24.3317 32.5353 25.3224C35.446 26.4989 37.304 27.7993 38.2329 29.2854C38.4807 29.9046 38.6665 32.6292 38.3568 35.5395C38.1091 38.0783 37.4898 40.741 36.1892 42.4128C33.1546 46.3139 27.2092 49.41 21.0162 46.995C16.6191 45.2612 14.4515 40.8029 14.5753 37.3353C16.1855 37.521 17.7957 37.4591 19.344 37.0875Z" fill="#C3473D"/>
<path d="M30.9251 14.1146C29.9343 15.1054 28.7576 16.4676 27.8286 18.2014C26.5281 20.5545 25.9707 22.7217 25.7849 24.1459C24.5463 24.3317 22.998 26.2513 18.8486 25.4463C16.1237 24.889 13.4606 22.6598 11.9124 21.2356C11.5408 20.3068 11.1692 18.0776 11.1692 15.5388C11.2311 11.9473 11.9743 7.67474 14.5754 5.44556C18.1674 2.28755 24.1747 1.54449 28.5098 3.89752C32.6592 6.1267 35.57 11.2662 36.1274 12.8142C33.9598 13 31.978 13.6192 30.9251 14.1146Z" fill="#C3473D"/>
<path d="M11.9123 21.1736C13.4606 22.5978 16.1236 24.827 18.8486 25.3843C22.9979 26.1893 24.5462 24.2697 25.7848 24.0839C25.661 25.5081 25.4133 28.2946 24.5462 30.338C23.1838 33.496 21.0781 35.6633 19.406 37.0875C17.8577 37.459 16.1855 37.5209 14.5753 37.3971C9.6828 36.9636 4.97608 34.4868 3.18008 31.2668C0.331265 26.1893 2.49884 17.3964 11.2311 15.4768C11.1692 18.0156 11.5407 20.2448 11.9123 21.1736Z" fill="#C3473D"/>
<path d="M11.9124 21.1736C11.5408 20.2448 11.1692 18.0156 11.1692 15.4768C11.2311 11.8853 11.9743 7.61273 14.5754 5.38355C18.1674 2.22554 24.1747 1.48248 28.5098 3.83551C32.6592 6.06469 35.57 11.2042 36.1274 12.7522" stroke="#EBE5D9" stroke-width="3" stroke-miterlimit="10"/>
<path d="M30.925 14.1144C31.5444 13.4952 32.1017 13.0617 32.5352 12.6902" stroke="#EBE5D9" stroke-width="3" stroke-miterlimit="10"/>
<path d="M25.7849 24.1459C26.0326 22.7217 26.5281 20.5545 27.8286 18.2014C28.8195 16.4676 29.9343 15.1053 30.9252 14.1765" stroke="#EBE5D9" stroke-width="3" stroke-miterlimit="10"/>
<path d="M30.925 14.1145C31.9159 13.6191 33.9597 12.9999 36.1273 12.7522C38.4187 12.4426 40.834 12.5045 42.63 13.3095C46.0362 14.7957 50.3713 19.3779 49.5043 25.0747C48.8231 29.533 43.2493 34.6725 38.4187 35.6014" stroke="#EBE5D9" stroke-width="3" stroke-miterlimit="10"/>
<path d="M38.2949 29.3472C38.6046 29.8425 38.7904 30.3998 38.9142 30.8952" stroke="#EBE5D9" stroke-width="3" stroke-miterlimit="10"/>
<path d="M25.7849 24.1458C27.0235 24.2077 30.1201 24.3934 32.5973 25.3842C35.5081 26.5607 37.366 27.8611 38.295 29.3472" stroke="#EBE5D9" stroke-width="3" stroke-miterlimit="10"/>
<path d="M38.2949 29.3472C38.5427 29.9664 38.7284 32.6909 38.4188 35.6013C38.171 38.1401 37.5517 40.8027 36.2512 42.4746C33.2166 46.3757 27.2712 49.4718 21.0781 47.0568C16.681 45.323 14.5135 40.8646 14.6373 37.397" stroke="#EBE5D9" stroke-width="3" stroke-miterlimit="10"/>
<path d="M19.406 37.0875C19.344 37.0875 19.344 37.0875 19.406 37.0875ZM19.406 37.0875C17.8577 37.459 16.1855 37.5209 14.5753 37.3971C9.6828 36.9636 4.97608 34.4868 3.18008 31.2668C0.331265 26.1893 2.49884 17.3964 11.2311 15.4768" stroke="#EBE5D9" stroke-width="3" stroke-miterlimit="10"/>
<path d="M10.6118 20.0591C10.8595 20.2448 11.293 20.6164 11.9123 21.1737C13.4606 22.5979 16.1237 24.8271 18.8486 25.3844C22.998 26.1893 24.5463 24.2698 25.7849 24.084" stroke="#EBE5D9" stroke-width="3" stroke-miterlimit="10"/>
<path d="M25.7847 24.1458C25.6609 25.57 25.4132 28.3564 24.5461 30.3999C23.1836 33.5579 21.078 35.7251 19.4059 37.1493C18.7246 37.7066 18.1053 38.202 17.6099 38.5116" stroke="#EBE5D9" stroke-width="3" stroke-miterlimit="10"/>
</svg>
