<svg width="84" height="50" viewBox="0 0 84 50" fill="none" xmlns="http://www.w3.org/2000/svg">
<path d="M58.9175 23.9195C61.4165 27.5515 65.197 28.8896 67.1833 28.6984C69.3619 28.5073 70.9639 26.3408 70.195 24.5567C69.298 22.454 67.1193 21.6257 64.8767 21.8168C62.9544 22.008 60.9039 22.7089 58.9175 23.9195ZM54.4322 27.5515C53.0866 28.9533 51.9332 30.5462 50.908 32.3304C49.5624 34.7517 46.4227 38.1287 43.4111 38.7022C40.6558 39.2757 36.2986 37.4916 34.8889 33.2861C36.9394 28.7621 40.9122 23.6647 42.6422 21.8168C42.9626 21.4982 43.5393 20.861 44.3722 20.0964C46.4868 18.1849 50.0109 15.2538 54.2399 13.0874C56.6748 11.813 59.3661 10.8572 62.1214 10.5386C65.5174 10.1563 72.3736 10.0289 76.4104 13.406C82.6258 18.5672 84.0996 31.6295 77.0512 37.2367C70.8998 42.143 60.1991 41.697 58.3409 36.4721H58.2768C58.2127 32.2029 55.137 28.3161 54.4322 27.5515Z" fill="#FFF8E8"/>
<path d="M58.2768 36.5995C58.2768 37.173 58.2768 37.8102 58.1487 38.4474C57.1235 43.9272 51.9333 47.368 47.448 48.1963C40.9763 49.407 33.6715 46.9857 30.2755 43.8634C28.8658 42.5891 27.5842 41.1873 26.4949 39.7217C23.9959 36.4084 22.3941 33.095 21.4971 31.3109C21.8815 31.2472 22.2659 31.1835 22.6503 31.056C25.726 30.3551 27.6484 29.2082 30.9163 27.4241C32.1337 30.164 33.3511 32.0118 34.889 33.3499C36.2986 37.5553 40.6559 39.2757 43.4111 38.766C46.4227 38.1925 49.5624 34.8154 50.908 32.3941C51.8692 30.61 53.0866 29.017 54.4322 27.6152C55.1371 28.3161 58.2127 32.203 58.2768 36.5995Z" fill="#FFF8E8"/>
<path d="M38.0929 10.4112C34.5046 10.666 29.3144 12.0678 24.765 14.8077C23.996 15.2538 23.2913 15.6998 22.5864 16.1458C23.5476 10.4112 27.0077 5.69599 30.9163 3.52956C34.5046 1.618 43.3472 1.17198 47.5762 4.10303C51.5489 6.84292 53.8556 11.4307 54.2401 13.0873C50.011 15.19 46.4228 18.1211 44.3724 20.0964C44.6928 19.0769 43.9237 13.4059 40.5918 11.3669C39.5025 10.7297 38.9259 10.5386 38.0929 10.4112Z" fill="#FFF8E8"/>
<path d="M40.5915 11.3669C43.9235 13.3422 44.7566 19.0768 44.3721 20.0963C43.5391 20.861 42.9625 21.4344 42.6421 21.8167C40.5276 22.6451 37.9645 23.792 35.0811 25.1938C33.4792 26.0222 32.1336 26.7231 30.9161 27.3603C27.7123 29.1444 25.7258 30.2913 22.6502 30.9922C22.2016 31.1196 21.8173 31.1834 21.4969 31.2471C21.3688 31.3108 21.2406 31.3108 21.1124 31.3745C19.4464 31.6931 18.5493 31.5657 17.0756 30.8648C15.9222 30.2276 15.0892 29.0807 14.5125 27.7426C13.4873 25.385 14.6407 22.9637 14.8329 22.5176C16.7552 20.6061 19.3182 18.3122 22.6502 16.0821C23.355 15.636 24.0599 15.19 24.8289 14.744C29.3783 12.0041 34.5685 10.666 38.1568 10.3474C38.9257 10.5386 39.5022 10.7297 40.5915 11.3669Z" fill="#FFF8E8"/>
<path d="M42.7062 21.8169C40.9762 23.7284 37.0035 28.7622 34.9531 33.2862C33.4152 31.9481 32.1977 30.164 30.9802 27.3604C32.1336 26.7232 33.4792 25.9586 35.1452 25.194C37.9645 23.7922 40.5917 22.6452 42.7062 21.8169Z" fill="#FFF8E8"/>
<path d="M17.0756 30.9286C18.1649 31.5657 19.5106 31.8206 21.1125 31.4383C21.2406 31.4383 21.3688 31.3746 21.497 31.3746C22.33 33.2224 23.9318 36.5358 26.4948 39.7854C25.9822 40.104 20.4076 44.5643 11.8214 40.5501C6.24677 37.9376 1.05652 31.6932 2.14582 24.6841C2.2099 24.1744 3.42747 16.8468 10.2836 14.2343C16.6913 11.813 22.2658 15.8273 22.6502 16.1459C19.3183 18.376 16.7553 20.6062 14.833 22.5814C14.6407 23.0275 13.4233 25.4488 14.5126 27.8064C15.0893 29.1444 15.9223 30.2277 17.0756 30.9286Z" fill="#FFF8E8"/>
<path d="M21.5611 31.3108C21.433 31.3745 21.3049 31.3745 21.1768 31.4382C21.3049 31.3745 21.433 31.3108 21.5611 31.3108Z" fill="#D22B29"/>
<path d="M21.1767 31.3745C19.5107 31.7568 18.1651 31.5019 17.1399 30.8647C18.6136 31.5656 19.5107 31.6931 21.1767 31.3745Z" fill="#D22B29"/>
<path d="M22.6502 16.1457C22.2658 15.8271 16.6913 11.8766 10.2836 14.2342C3.42747 16.7829 2.2099 24.1105 2.14582 24.684C1.1206 31.6293 6.24677 37.9375 11.8214 40.5499C20.4076 44.5642 26.0463 40.1039 26.4948 39.7853" stroke="#363634" stroke-width="2.85" stroke-miterlimit="10"/>
<path d="M38.2209 10.4111C38.1568 10.4111 38.1568 10.4111 38.0928 10.4111C34.5045 10.666 29.3143 12.0678 24.7649 14.8077C23.9959 15.2537 23.2912 15.6998 22.5863 16.1458C19.2544 18.3759 16.6913 20.6061 14.769 22.5814" stroke="#363634" stroke-width="2.85" stroke-miterlimit="10"/>
<path d="M17.0117 30.8647C17.0758 30.8647 17.0758 30.8647 17.0117 30.8647ZM17.0117 30.8647C18.6136 31.5656 19.4466 31.693 21.1125 31.3744C21.2407 31.3744 21.3689 31.3107 21.4971 31.3107C21.8815 31.247 22.2659 31.1833 22.6503 31.0558C25.726 30.3549 27.6484 29.208 30.9162 27.4239C32.0696 26.7867 33.4152 26.0221 35.0812 25.2575C37.9006 23.8556 40.5277 22.7087 42.6422 21.8804" stroke="#363634" stroke-width="2.85" stroke-miterlimit="10"/>
<path d="M14.8331 22.5813C14.6409 23.0273 13.4234 25.4486 14.5127 27.8062C15.0894 29.1443 15.9224 30.2275 17.0758 30.9284C18.1651 31.5656 19.5107 31.8205 21.1126 31.4382C21.2408 31.4382 21.369 31.3745 21.4971 31.3107" stroke="#363634" stroke-width="2.85" stroke-miterlimit="10"/>
<path d="M21.561 31.3109C22.4581 33.1587 23.996 36.4721 26.559 39.7855C27.6483 41.1873 28.8657 42.5891 30.3395 43.9272C33.7996 46.9857 41.0402 49.407 47.5119 48.26C51.9973 47.4317 57.1874 43.9909 58.2127 38.5111C58.3408 37.8739 58.3409 37.2367 58.3409 36.6633C58.2128 32.2667 55.2012 28.3799 54.4964 27.6152C54.4323 27.5515 54.4322 27.5515 54.3681 27.4878" stroke="#363634" stroke-width="2.85" stroke-miterlimit="10"/>
<path d="M34.9531 33.2861C37.0036 28.7621 40.9762 23.6647 42.7063 21.8168C43.0266 21.4982 43.6033 20.861 44.4363 20.0964C46.5508 18.1849 50.0751 15.2538 54.3041 13.0874C56.739 11.813 59.4303 10.8572 62.1856 10.5386C65.5816 10.1563 72.4376 10.0289 76.4745 13.406C82.6899 18.5672 84.1636 31.6295 77.1152 37.2367C70.9639 42.143 60.2632 41.697 58.405 36.4721" stroke="#363634" stroke-width="2.85" stroke-miterlimit="10"/>
<path d="M58.9175 23.9194C60.9038 22.7088 62.9543 22.0079 64.8766 21.8167C67.1193 21.6256 69.2979 22.4539 70.195 24.5566C70.9639 26.4044 69.3619 28.5072 67.1833 28.6983C65.1969 28.8895 61.4165 27.4877 58.9175 23.9194Z" stroke="#363634" stroke-width="2.85" stroke-miterlimit="10"/>
<path d="M34.9531 33.2861C36.3628 37.4915 40.7199 39.2119 43.4751 38.7021C46.4867 38.1287 49.6266 34.7516 50.9722 32.3303C51.9333 30.5462 53.1508 28.9532 54.4964 27.5514C55.9061 26.0859 57.3798 24.8752 58.9817 23.9194" stroke="#363634" stroke-width="2.85" stroke-miterlimit="10"/>
<path d="M54.3042 13.1511C53.9197 11.4944 51.6129 6.90664 47.6402 4.16674C43.4111 1.23569 34.6327 1.68173 30.9803 3.59328C27.0076 5.69599 23.6115 10.4749 22.6504 16.2095" stroke="#363634" stroke-width="2.85" stroke-miterlimit="10"/>
<path d="M44.3722 20.0963C44.6926 19.0768 43.9236 13.4059 40.5916 11.3669C39.5024 10.7297 38.9258 10.5386 38.1569 10.4111C37.7724 10.3474 37.3238 10.2837 36.7471 10.22" stroke="#363634" stroke-width="2.85" stroke-miterlimit="10"/>
<path d="M30.9802 27.4241C32.1977 30.164 33.4152 32.0118 34.9531 33.3499" stroke="#363634" stroke-width="2.85" stroke-miterlimit="10"/>
</svg>
