<svg width="52" height="49" viewBox="0 0 52 49" fill="none" xmlns="http://www.w3.org/2000/svg">
<path d="M38.295 28.893C37.366 27.4069 35.4461 26.0446 32.5973 24.93C30.1201 23.9393 27.0235 23.7535 25.7849 23.6916C26.0326 22.2674 26.5281 20.1001 27.8286 17.7471C28.8195 16.0133 29.9343 14.651 30.9252 13.7222C31.9161 13.2268 33.9598 12.6076 36.1274 12.3599C38.4188 12.0503 40.8341 12.1122 42.6301 12.9172C46.0363 14.4033 50.3715 18.9855 49.5044 24.6823C48.8232 29.1407 43.2494 34.2802 38.4188 35.209C38.7284 32.2368 38.4807 29.5122 38.295 28.893Z" fill="#C3473D"/>
<path d="M19.344 36.6332C21.0162 35.2709 23.0599 33.1037 24.4843 29.8837C25.3513 27.8403 25.599 25.0538 25.7229 23.6296C26.9615 23.6916 30.058 23.8773 32.5353 24.8681C35.446 26.0446 37.304 27.345 38.2329 28.8311C38.4807 29.4503 38.6665 32.1748 38.3568 35.0852C38.1091 37.624 37.4898 40.2866 36.1892 41.9585C33.1546 45.8596 27.2092 48.9556 21.0162 46.5407C16.6191 44.8069 14.4515 40.3485 14.5753 36.8809C16.1855 37.0667 17.7957 37.0047 19.344 36.6332Z" fill="#C3473D"/>
<path d="M30.9251 13.6603C29.9343 14.651 28.7576 16.0133 27.8286 17.7471C26.5281 20.1001 25.9707 22.2674 25.7849 23.6916C24.5463 23.8773 22.998 25.7969 18.8486 24.9919C16.1237 24.4346 13.4606 22.2055 11.9124 20.7813C11.5408 19.8524 11.1692 17.6232 11.1692 15.0845C11.2311 11.493 11.9743 7.2204 14.5754 4.99122C18.1674 1.83321 24.1747 1.09015 28.5098 3.44317C32.6592 5.67236 35.57 10.8119 36.1274 12.3599C33.9598 12.5457 31.978 13.1649 30.9251 13.6603Z" fill="#C3473D"/>
<path d="M11.9123 20.7193C13.4606 22.1435 16.1236 24.3726 18.8486 24.9299C22.9979 25.7349 24.5462 23.8153 25.7848 23.6296C25.661 25.0538 25.4133 27.8403 24.5462 29.8837C23.1838 33.0417 21.0781 35.2089 19.406 36.6331C17.8577 37.0047 16.1855 37.0666 14.5753 36.9428C9.6828 36.5093 4.97608 34.0324 3.18008 30.8125C0.331265 25.7349 2.49884 16.942 11.2311 15.0225C11.1692 17.5613 11.5407 19.7904 11.9123 20.7193Z" fill="#C3473D"/>
<path d="M11.9124 20.7192C11.5408 19.7904 11.1692 17.5612 11.1692 15.0224C11.2311 11.431 11.9743 7.15839 14.5754 4.9292C18.1674 1.7712 24.1747 1.02814 28.5098 3.38116C32.6592 5.61034 35.57 10.7498 36.1274 12.2979" stroke="#363634" stroke-width="3" stroke-miterlimit="10"/>
<path d="M30.925 13.6601C31.5444 13.0408 32.1017 12.6074 32.5352 12.2358" stroke="#363634" stroke-width="3" stroke-miterlimit="10"/>
<path d="M25.7849 23.6916C26.0326 22.2674 26.5281 20.1001 27.8286 17.7471C28.8195 16.0133 29.9343 14.651 30.9252 13.7222" stroke="#363634" stroke-width="3" stroke-miterlimit="10"/>
<path d="M30.925 13.6602C31.9159 13.1648 33.9597 12.5456 36.1273 12.2979C38.4187 11.9883 40.834 12.0502 42.63 12.8552C46.0362 14.3413 50.3713 18.9235 49.5043 24.6203C48.8231 29.0787 43.2493 34.2182 38.4187 35.147" stroke="#363634" stroke-width="3" stroke-miterlimit="10"/>
<path d="M38.2949 28.8928C38.6046 29.3882 38.7904 29.9455 38.9142 30.4409" stroke="#363634" stroke-width="3" stroke-miterlimit="10"/>
<path d="M25.7849 23.6914C27.0235 23.7533 30.1201 23.9391 32.5973 24.9298C35.5081 26.1064 37.366 27.4067 38.295 28.8928" stroke="#363634" stroke-width="3" stroke-miterlimit="10"/>
<path d="M38.2949 28.8928C38.5427 29.512 38.7284 32.2366 38.4188 35.1469C38.171 37.6857 37.5517 40.3483 36.2512 42.0202C33.2166 45.9213 27.2712 49.0174 21.0781 46.6025C16.681 44.8687 14.5135 40.4103 14.6373 36.9426" stroke="#363634" stroke-width="3" stroke-miterlimit="10"/>
<path d="M19.406 36.6331C19.344 36.6331 19.344 36.6331 19.406 36.6331ZM19.406 36.6331C17.8577 37.0047 16.1855 37.0666 14.5753 36.9428C9.6828 36.5093 4.97608 34.0324 3.18008 30.8125C0.331265 25.7349 2.49884 16.942 11.2311 15.0225" stroke="#363634" stroke-width="3" stroke-miterlimit="10"/>
<path d="M10.6118 19.6047C10.8595 19.7905 11.293 20.162 11.9123 20.7193C13.4606 22.1435 16.1237 24.3727 18.8486 24.93C22.998 25.735 24.5463 23.8154 25.7849 23.6296" stroke="#363634" stroke-width="3" stroke-miterlimit="10"/>
<path d="M25.7847 23.6914C25.6609 25.1156 25.4132 27.9021 24.5461 29.9455C23.1836 33.1035 21.078 35.2708 19.4059 36.695C18.7246 37.2523 18.1053 37.7476 17.6099 38.0572" stroke="#363634" stroke-width="3" stroke-miterlimit="10"/>
</svg>
