<svg width="69" height="61" viewBox="0 0 69 61" fill="none" xmlns="http://www.w3.org/2000/svg">
<path d="M53.3015 22.0498C50.9067 20.2347 47.9941 19.2623 45.0816 19.0678C41.1982 18.7437 37.25 19.7161 34.4669 21.5312C33.5608 22.1147 32.7841 22.7629 32.2016 23.476C30.1304 25.9394 29.6126 29.1807 29.8068 31.6441C29.4185 31.1255 29.0949 30.6069 28.7712 29.9586C28.5771 29.5697 27.4768 27.4304 27.2826 25.2263C26.8943 19.2623 33.4313 12.9093 40.0979 10.8997C45.5346 9.27907 51.4245 10.4459 53.884 11.2239C56.0846 11.9369 58.6088 13.2335 61.0036 15.7617C61.9744 16.7989 62.9453 18.0306 63.7867 19.5216C64.4339 20.6237 68.1879 27.3656 66.5051 33.7834C65.2753 38.2564 62.5569 39.164 61.0036 39.6826C60.8741 30.7366 57.638 25.8746 53.3015 22.0498Z" fill="#C3473D"/>
<path d="M61.0683 39.7474C61.0683 40.2012 61.0683 40.5902 61.0683 41.044C61.0035 43.7667 59.3855 49.2121 56.2787 51.9996C52.3306 55.565 47.1527 54.3982 46.1818 54.2037C49.8711 49.601 50.6478 43.3777 50.7125 42.9239C51.3597 37.1544 49.3533 32.5517 48.3177 30.6069C48.253 24.8374 45.9877 20.494 45.0815 19.0679C47.9941 19.2623 50.9067 20.2347 53.3014 22.0499C57.6379 25.8746 60.8741 30.7366 61.0683 39.7474Z" fill="#C3473D"/>
<path d="M54.5961 5.51919C58.609 8.95498 60.6801 13.7521 61.0685 15.8266C58.6737 13.2983 56.1495 12.0018 53.9489 11.2887C51.4894 10.446 45.5995 9.27911 40.1628 10.9646C33.4315 12.9742 26.8944 19.2623 27.2828 25.2912C27.4122 27.4953 28.5125 29.6345 28.7714 30.0235C29.095 30.6069 29.4186 31.1904 29.807 31.709C31.1662 33.5241 32.6548 34.6262 33.4962 35.1448L33.561 35.2096C32.7843 35.7282 31.9429 36.2468 30.972 36.6358C29.095 37.4137 27.2828 37.8675 25.5352 38.062C20.0337 34.3669 16.6681 29.5049 16.7975 22.8278C16.927 12.5852 27.8006 6.10262 34.9849 3.63923C35.6968 3.37992 36.4088 3.18544 37.056 3.05579C40.1628 2.27788 48.3827 0.203436 54.5961 5.51919Z" fill="#C3473D"/>
<path d="M48.3177 30.6069C49.3532 32.5517 51.3597 37.1544 50.7124 42.9239C50.6477 43.3777 49.871 49.6658 46.1818 54.2037C44.6284 56.1485 42.622 57.7691 39.9036 58.547C34.3374 60.1677 29.6126 57.056 28.3828 55.2409C34.9846 53.4906 39.7094 48.499 40.9392 47.2024C43.334 44.6742 46.829 41.044 47.9293 34.9503C48.2529 33.4593 48.3177 31.9683 48.3177 30.6069Z" fill="#C3473D"/>
<path d="M48.318 30.6069C48.318 31.9682 48.2533 33.4592 47.9297 34.9502C46.8294 41.0439 43.3343 44.6742 40.9395 47.2024C39.645 48.5637 34.9202 53.4905 28.3831 55.2408C26.5062 55.7594 24.435 56.0187 22.2344 55.8243C20.0985 55.6298 16.2798 55.3057 13.6262 52.1292C11.1667 49.0823 11.2314 46.2948 11.2961 45.0631C13.7556 46.1652 15.9562 46.6189 16.6682 46.7486C20.2927 47.5265 23.1405 47.0079 23.9819 46.8782C31.231 45.3872 36.6678 39.2936 38.4153 32.8758C38.48 32.6165 38.8684 31.2551 39.0625 29.5048C39.3861 26.9118 39.3861 23.5408 37.4444 22.1795C36.6678 21.596 35.3086 21.4664 34.4024 21.5312C37.1855 19.7161 41.1337 18.7437 45.0171 19.0678C45.9879 20.494 48.1885 24.9022 48.318 30.6069Z" fill="#C3473D"/>
<path d="M12.461 34.8855C12.461 34.9503 12.461 34.9503 12.461 34.8855C12.5905 35.0152 12.6552 35.08 12.7199 35.1448C14.7263 36.7007 19.7101 38.7103 25.4704 38.062C27.218 37.8675 29.095 37.4137 30.9072 36.6358C31.8781 36.2469 32.7195 35.7283 33.4962 35.2096C36.1498 33.3945 37.8326 30.9959 39.0624 29.5698C38.8682 31.3201 38.4799 32.6814 38.4152 32.9407C36.6676 39.2937 31.2308 45.3874 23.9818 46.8784C23.1404 47.0728 20.2926 47.5915 16.668 46.7487C15.9561 46.6191 13.8202 46.1653 11.296 45.0632C7.86564 43.5722 3.9175 40.8495 2.5583 36.0524C1.13439 31.0608 2.23469 24.9023 8.18925 22.1147C8.25398 28.727 10.9076 33.5242 12.461 34.8855Z" fill="#C3473D"/>
<path d="M12.1372 9.08471C16.5384 3.96344 26.0527 1.56487 34.9199 3.70413C27.6708 6.16753 16.862 12.5853 16.7325 22.8927C16.6678 29.5698 19.9687 34.4318 25.4702 38.1269C19.7098 38.7751 14.7261 36.7655 12.7197 35.2097C12.655 35.1449 12.5255 35.08 12.4608 35.0152C10.9721 33.589 8.31848 28.7919 8.18903 22.2444C8.12431 19.4569 8.05958 13.7522 12.1372 9.08471Z" fill="#C3473D"/>
<path d="M61.0684 15.8267C62.0392 16.8639 63.0101 18.0956 63.8515 19.5866C64.4987 20.6886 68.2527 27.4306 66.5699 33.8484C65.3401 38.3214 62.6217 39.2289 61.0684 39.7475" stroke="#363634" stroke-width="3" stroke-miterlimit="10"/>
<path d="M33.4961 35.0799C32.6547 34.5613 31.166 33.4593 29.8068 31.6441C29.4185 31.1255 29.0949 30.6069 28.7712 29.9586C28.5771 29.5697 27.4768 27.4304 27.2826 25.2263C26.8943 19.2623 33.4313 12.9093 40.0979 10.8997C45.5346 9.27907 51.4245 10.4459 53.884 11.2239C56.0846 11.9369 58.6088 13.2335 61.0036 15.7617" stroke="#363634" stroke-width="3" stroke-miterlimit="10"/>
<path d="M25.4705 38.062C20.0337 34.3669 16.6681 29.5049 16.7976 22.8278C16.927 12.5852 27.8006 6.10262 34.9849 3.63923C35.6968 3.37992 36.4088 3.18544 37.056 3.05579C40.1628 2.27788 48.3826 0.203436 54.5961 5.51919C58.609 8.95498 60.6801 13.7521 61.0685 15.8266" stroke="#363634" stroke-width="3" stroke-miterlimit="10"/>
<path d="M12.4608 34.8856C10.9721 33.4594 8.31848 28.6622 8.18903 22.1148C8.12431 19.4569 8.05958 13.7522 12.1372 9.08471C16.5384 3.96344 26.0527 1.56487 34.9199 3.70413" stroke="#363634" stroke-width="3" stroke-miterlimit="10"/>
<path d="M12.7198 35.1447C12.6551 35.0798 12.5257 35.015 12.4609 34.9502" stroke="#363634" stroke-width="3" stroke-miterlimit="10"/>
<path d="M39.127 29.5049C37.8972 30.9311 36.2144 33.3296 33.5608 35.1448C32.7841 35.6634 31.9427 36.182 30.9718 36.5709C29.0948 37.3489 27.2826 37.8026 25.535 37.9971C19.7746 38.6454 14.7909 36.6358 12.7845 35.0799C12.7198 35.0151 12.5903 34.9503 12.5256 34.8855C12.2667 34.691 12.0725 34.4965 12.0078 34.302" stroke="#363634" stroke-width="3" stroke-miterlimit="10"/>
<path d="M34.2081 21.5312C34.2729 21.5312 34.4023 21.5312 34.467 21.5312C35.3732 21.5312 36.7323 21.6609 37.509 22.1795C39.4507 23.6057 39.4507 26.9118 39.1271 29.5049C38.9329 31.2552 38.5446 32.6165 38.4799 32.8758C36.6676 39.2936 31.2308 45.3873 23.9818 46.8783C23.1404 47.0728 20.2926 47.5914 16.668 46.7487C15.9561 46.619 13.8202 46.1652 11.296 45.0632C7.86564 43.5722 3.9175 40.8495 2.5583 36.0523C1.13439 31.0607 2.23469 24.9022 8.18925 22.1147" stroke="#363634" stroke-width="3" stroke-miterlimit="10"/>
<path d="M45.0171 18.9382C45.0171 19.0031 45.0818 19.0031 45.0818 19.0679C45.9879 20.4941 48.1885 24.9022 48.318 30.607C48.318 31.9683 48.2533 33.4593 47.9297 34.9503C46.8294 41.044 43.3343 44.6742 40.9395 47.2025C39.645 48.5638 34.9202 53.4906 28.3831 55.2409C26.5062 55.7595 24.435 56.0188 22.2344 55.8244C20.0985 55.6299 16.2798 55.3057 13.6262 52.1293C11.1667 49.0824 11.2314 46.2949 11.2961 45.0632" stroke="#363634" stroke-width="3" stroke-miterlimit="10"/>
<path d="M53.3015 22.0498C57.638 25.8097 60.8742 30.7365 61.0036 39.7474C61.0036 40.2011 61.0036 40.5901 61.0036 41.0439C60.9389 43.7666 59.3208 49.212 56.2141 51.9995C52.2659 55.565 47.088 54.3981 46.1172 54.2036" stroke="#363634" stroke-width="3" stroke-miterlimit="10"/>
<path d="M29.8069 31.6441C29.548 29.1807 30.0658 25.9394 32.2017 23.476C32.8489 22.7629 33.5608 22.1146 34.467 21.5312C37.2501 19.7161 41.1982 18.7437 45.0816 19.0678C47.9942 19.2623 50.9068 20.2347 53.3015 22.0498C54.0135 22.5684 54.6607 23.2167 55.308 23.9298" stroke="#363634" stroke-width="3" stroke-miterlimit="10"/>
<path d="M48.3177 30.6069C49.3532 32.5517 51.3597 37.1544 50.7124 42.9239C50.6477 43.3777 49.871 49.6658 46.1818 54.2037C44.6284 56.1485 42.622 57.7691 39.9036 58.547C34.3374 60.1677 29.6126 57.056 28.3828 55.2409" stroke="#363634" stroke-width="3" stroke-miterlimit="10"/>
</svg>
