<svg width="70" height="55" viewBox="0 0 70 55" fill="none" xmlns="http://www.w3.org/2000/svg">
<path d="M66.4999 35.9727C65.2996 37.8965 63.4677 39.3859 61.383 40.1926C57.4033 41.682 53.234 40.7512 52.6023 40.4409C52.855 39.3238 52.9813 38.1448 53.0445 37.0898C53.9289 37.4001 57.6559 37.0277 60.8776 35.166C63.7203 33.5525 65.6155 29.5808 65.7418 26.0435H65.8682C67.0684 26.664 68.395 29.7669 67.8896 32.6216C67.5738 33.8007 67.1316 34.9177 66.4999 35.9727Z" fill="#FAA41A"/>
<path d="M66.5 35.9729C66.3736 40.2549 65.1102 42.0546 64.6048 42.6751C64.1626 43.2337 63.5309 43.7302 62.8361 44.1025C60.0566 45.5919 55.6978 45.5919 51.6548 43.8543H51.4653C51.718 43.2957 51.8444 42.7993 51.9075 42.5511C52.097 41.8684 52.2866 41.1858 52.4129 40.5031C53.1078 40.8134 57.2138 41.6822 61.1936 40.2549C63.4046 39.3861 65.2365 37.8967 66.5 35.9729Z" fill="#FAA41A"/>
<path d="M65.5523 23.8715C65.6786 24.5541 65.7418 25.2368 65.6786 25.9815C65.5523 29.5188 63.6572 33.4905 60.8145 35.104C57.5928 36.9037 53.8657 37.3381 52.9813 37.0278C53.1076 35.166 52.9813 33.5525 52.855 32.7458C55.3186 32.4355 57.0874 31.877 58.414 30.822C59.4247 30.0152 60.1828 28.9603 60.8145 27.657C60.9408 27.4088 61.0671 27.0985 61.1935 26.7882C61.383 26.2918 61.5094 25.7332 61.5725 25.2368C61.6989 24.43 61.6357 23.5612 61.5093 22.8165C61.1935 21.0169 60.3723 19.4654 59.9301 19.031C59.6142 18.4725 59.2984 17.9139 58.9194 17.3554C59.5511 17.2934 60.3723 16.921 61.0672 16.4246C61.8252 16.859 64.8574 20.3342 65.5523 23.8715Z" fill="#FAA41A"/>
<path d="M59.2351 11.0255C61.762 10.7773 63.2149 12.5149 62.899 14.2525C62.7727 14.9351 61.9515 15.8039 61.0039 16.4245C60.309 16.921 59.4878 17.2933 58.8561 17.3554C58.5403 16.8589 58.1612 16.4245 57.719 15.9281C57.0242 15.1213 56.2661 14.4387 55.5081 13.8181C55.5712 13.694 57.1505 11.8943 58.5403 11.2737C58.793 11.1496 59.0456 11.0875 59.2351 11.0255Z" fill="#FAA41A"/>
<path d="M62.8361 44.1025C62.5202 44.9713 61.3831 47.9501 58.9827 49.3774C56.14 51.053 51.8444 50.6806 48.749 48.3845C50.202 46.7089 51.0863 45.0334 51.5285 43.7922H51.718C55.7609 45.5919 60.0566 45.5919 62.8361 44.1025Z" fill="#FAA41A"/>
<path d="M61.5094 22.8165C61.6357 23.6232 61.6989 24.43 61.5726 25.2367C61.4462 24.9264 60.4987 22.6303 60.1828 22.0718C57.7823 17.8518 55.066 14.7489 47.8645 12.4528C37.7572 9.28784 28.9765 15.3075 28.2184 15.866L28.1552 15.928C27.0813 14.811 26.6392 14.4386 25.8811 13.6939L25.9443 13.6319C26.0706 13.5698 26.197 13.5078 26.3233 13.3837C29.7345 11.3357 34.0301 10.2187 36.4938 9.72225C36.8728 9.66019 37.2518 9.59814 37.5045 9.53608C37.8204 9.47402 38.6416 9.34989 39.905 9.28784C40.5999 9.28784 41.4211 9.22578 42.3055 9.28784C42.495 9.28784 42.6845 9.28784 42.874 9.28784C44.2638 9.34989 45.9062 9.53607 47.5487 9.90841C49.0648 10.2187 50.5809 10.7152 52.097 11.4599C53.2972 12.0184 54.4974 12.7631 55.6345 13.6319C56.3926 14.2525 57.1506 14.9351 57.8455 15.7419C58.2877 16.2383 58.6667 16.6727 58.9826 17.1692C59.3616 17.7277 59.7406 18.2862 59.9933 18.8448C60.6882 20.4583 61.1935 21.7615 61.5094 22.8165Z" fill="#FAA41A"/>
<path d="M61.5726 25.2367C61.5094 25.7332 61.3831 26.2917 61.1936 26.7882C61.0672 27.0984 60.9409 27.3467 60.8146 27.657C60.1829 26.4158 56.519 18.9068 46.8538 16.3624C38.8312 14.2525 31.8192 17.2933 30.1767 18.1001C29.7977 17.6657 29.4187 17.2933 29.0397 16.8589C28.7238 16.4866 28.408 16.1763 28.1553 15.928L28.2185 15.866C28.9765 15.3074 37.7572 9.28784 47.8646 12.4528C55.1292 14.6869 57.7824 17.8518 60.1829 22.0718C60.4987 22.6303 61.4463 24.9264 61.5726 25.2367Z" fill="#FAA41A"/>
<path d="M61.5094 22.8165C61.1936 21.7616 60.6882 20.4583 59.9302 19.031C60.3724 19.4654 61.1936 20.9548 61.5094 22.8165Z" fill="#D22B29"/>
<path d="M57.7192 8.60531C58.4141 9.28794 58.5405 10.9635 58.5405 11.2738C57.1507 11.8944 55.6346 13.694 55.5082 13.8182C54.3712 12.9494 53.1709 12.2047 51.9707 11.6461C52.0339 11.3359 52.9814 9.10176 54.0553 8.41912C54.308 8.23295 54.6239 8.10883 55.0029 8.04677C55.8873 7.73648 57.0243 7.86061 57.7192 8.60531Z" fill="#FAA41A"/>
<path d="M60.8144 27.657C60.1827 29.0223 59.4247 30.0773 58.4139 30.822C57.8454 29.5808 55.0659 23.8095 47.6117 21.0169C40.6629 18.3484 34.2195 20.3963 32.7666 20.8927C31.9454 19.9619 31.1241 18.9689 30.2397 18.0381C31.8822 17.2313 38.8942 14.1905 46.9168 16.3005C56.5188 18.9069 60.1827 26.3538 60.8144 27.657Z" fill="#FAA41A"/>
<path d="M42.5582 23.9956C40.9158 23.7473 39.2734 23.9335 38.01 24.1817C37.1888 24.3679 36.4307 24.5541 35.9885 24.6782L35.9253 24.7403C34.9146 23.4991 33.8407 22.1959 32.7036 20.8927C34.1565 20.3341 40.6 18.3483 47.5487 21.0168C55.0029 23.8714 57.7824 29.5808 58.3509 30.8219C57.0243 31.8769 55.2556 32.4354 52.7919 32.7457C52.7287 32.4354 52.097 30.6358 50.6441 28.712C49.7597 27.5949 48.6227 26.4779 47.0434 25.547C46.0958 24.9885 45.0219 24.5541 43.7585 24.1817C43.3795 24.1197 42.9373 24.0576 42.5582 23.9956Z" fill="#FAA41A"/>
<path d="M54.9396 7.92276V7.98483C54.6238 8.04688 54.3079 8.23304 53.9921 8.35716C52.9813 8.97774 51.9706 11.2739 51.9074 11.5842C50.3913 10.8395 48.8752 10.343 47.3591 10.0327C47.6118 9.41215 48.5594 7.116 50.2018 6.24719C50.5177 6.06102 50.9599 5.81279 51.4652 5.68868C51.9706 5.56456 52.6023 5.50251 53.1708 5.75074C54.5606 6.30926 54.8765 7.73659 54.9396 7.92276Z" fill="#FAA41A"/>
<path d="M52.8551 32.7459C53.0446 33.5527 53.1077 35.1662 52.9814 37.0279C52.9182 38.0829 52.7919 39.262 52.5392 40.379C52.4129 41.0617 52.2233 41.7443 52.0338 42.4269C51.9706 42.6752 51.7812 43.1716 51.5916 43.7301C51.0863 44.9092 50.265 46.6469 48.8121 48.3224C47.7382 49.5015 46.4116 50.6807 44.6429 51.5495C38.1363 54.8385 31.1243 51.5495 30.4294 51.2392C40.9158 50.3083 46.7906 41.8684 47.1065 41.3099C49.8228 37.2141 50.5177 30.9462 50.7072 28.7122C52.1602 30.636 52.7287 32.4356 52.8551 32.7459Z" fill="#FAA41A"/>
<path d="M51.5285 5.6886C51.0231 5.87477 50.581 6.123 50.2651 6.30918C48.6227 7.17799 47.6751 9.47413 47.4224 10.0947C45.78 9.72236 44.2007 9.53619 42.7478 9.47413V9.28795C42.9373 8.79148 43.4427 7.42621 44.3902 6.18505C45.0219 5.3783 45.8431 4.57156 46.7907 4.19921C47.4856 3.95098 49.0649 3.26834 50.3283 4.07509C51.1495 4.5095 51.4022 5.25419 51.5285 5.6886Z" fill="#FAA41A"/>
<path d="M50.6439 28.7121C50.4544 30.8841 49.7595 37.214 47.0432 41.3098C46.6642 41.8684 40.8525 50.3082 30.3661 51.2391C29.7976 51.3012 29.229 51.3011 28.5973 51.3011C23.9227 51.3011 20.0693 49.8117 17.5425 48.3844C16.0895 47.5777 15.0156 46.7709 14.4471 46.3365C13.7522 45.5918 13.6259 44.1645 15.0156 42.2407C17.0371 43.7301 22.2171 47.2053 27.4603 47.1433C38.5783 47.0191 44.4532 35.7246 44.8954 34.8558C46.4747 31.6908 46.8537 27.4709 47.0432 25.5471C48.6225 26.478 49.7596 27.6571 50.6439 28.7121Z" fill="#FAA41A"/>
<path d="M47.0432 25.6091C46.8537 27.4708 46.5378 31.6907 44.8954 34.9177C44.4532 35.7866 38.5152 47.019 27.4603 47.2052C22.2171 47.2673 17.0371 43.8541 15.0156 42.3026C15.7105 41.3718 16.7213 40.4409 17.7952 39.6341C18.49 40.6271 20.6378 42.2406 22.5961 42.675C28.9764 44.1023 34.6617 39.8824 37.9466 35.7865C39.21 34.173 41.8 29.4567 42.4949 24.0576C42.8739 24.1197 43.3161 24.1817 43.6952 24.3058C45.0217 24.5541 46.0956 25.0505 47.0432 25.6091Z" fill="#FAA41A"/>
<path d="M42.8109 9.22582V9.41199C42.6214 9.41199 42.4318 9.41199 42.2423 9.41199V9.34993C41.5475 8.23289 39.7787 5.68852 37.2519 4.19913C37.2519 4.19913 36.3675 3.6406 35.1672 3.14414C35.6726 3.08208 38.8311 3.14414 40.5367 3.70266C42.3687 4.32324 44.1375 5.62646 44.3902 6.06087L44.4533 6.12293C43.5057 7.36409 43.0004 8.72936 42.8109 9.22582Z" fill="#FAA41A"/>
<path d="M42.2422 9.35006C41.3578 9.35006 40.5366 9.41212 39.8417 9.41212C38.7046 8.41919 36.3042 6.18511 33.7773 5.13013C28.3447 2.83399 23.67 3.3925 21.0168 3.70279C21.8381 3.14427 27.6498 0.97225 33.5878 2.58575C34.1564 2.70987 34.6617 2.9581 35.1671 3.14427C36.3674 3.64073 37.2517 4.19926 37.2517 4.19926C39.7786 5.68865 41.5473 8.23302 42.2422 9.35006Z" fill="#FAA41A"/>
<path d="M32.3877 34.4214C33.3352 33.4284 34.1564 32.4355 34.7882 31.4426C35.1672 30.8841 35.4831 30.3255 35.7989 29.8911C36.4306 28.8982 36.936 27.595 37.315 26.478C37.6308 25.5471 37.8204 24.7403 38.0099 24.1818C39.2733 23.9336 40.9157 23.7474 42.5581 23.9956C41.8001 29.3326 39.2733 34.1111 38.0099 35.7246C34.725 39.8825 28.9764 44.1024 22.6594 42.613C20.7011 42.1786 18.5533 40.5651 17.8584 39.5721C19.185 38.5172 20.7011 37.6484 21.7118 37.0899L21.775 37.1519C23.1647 37.4622 24.1755 37.7104 24.9335 37.7725C25.6916 37.8966 26.2601 37.8345 26.8287 37.7104C27.713 37.4622 28.4711 37.1519 29.2291 36.7796C30.4294 36.221 31.4401 35.3522 32.3877 34.4214Z" fill="#FAA41A"/>
<path d="M39.8417 9.41197C38.5783 9.47403 37.7571 9.59814 37.4413 9.6602C37.1254 9.72226 36.8096 9.78433 36.4305 9.84639C34.1564 8.72934 25.9442 5.00586 17.6056 7.11583C16.0895 7.48817 13.5627 8.10876 11.0359 9.47404C12.9942 5.37822 18.1742 4.13706 20.322 3.88883C20.5747 3.88883 20.8273 3.82676 21.08 3.7647C23.7332 3.45442 28.3447 2.89591 33.8405 5.19205C36.3042 6.18497 38.7047 8.41905 39.8417 9.41197Z" fill="#FAA41A"/>
<path d="M38.01 24.1819C37.8204 24.7404 37.5677 25.5472 37.3151 26.478C36.8729 25.9195 36.4307 25.361 35.9253 24.7404L35.9885 24.6784C36.4307 24.5542 37.1887 24.3681 38.01 24.1819Z" fill="#D22B29"/>
<path d="M37.3149 26.4781C36.9359 27.5951 36.4937 28.8983 35.7989 29.8913C35.483 30.3877 35.1671 30.8842 34.7881 31.4427C31.6927 26.6642 28.9132 22.7546 24.0491 17.5417C22.4066 15.8041 20.2588 13.6942 18.0479 12.5151C18.5532 12.3909 19.1849 12.2048 19.8166 12.0806C21.5854 11.7083 23.1647 11.8945 24.3649 12.2668C25.0598 12.8874 25.502 13.3218 25.881 13.6321C26.7023 14.3147 27.0813 14.7491 28.1552 15.8662C28.4079 16.1144 28.7237 16.4247 29.0396 16.797C29.4186 17.1694 29.7976 17.6038 30.1766 18.0382C31.061 18.9691 31.8823 19.8999 32.7035 20.8929C33.8405 22.1961 34.9144 23.4993 35.9252 24.7405C36.3674 25.361 36.8727 25.9196 37.3149 26.4781Z" fill="#FAA41A"/>
<path d="M36.4307 9.84657C33.967 10.343 29.6714 11.4601 26.2602 13.508C26.0075 13.1356 25.3126 12.7012 24.365 12.3909C23.1648 12.0186 21.5855 11.7704 19.8167 12.2048C19.185 12.3289 18.6165 12.5151 18.048 12.6392C16.0897 13.1977 14.8894 13.7562 13.8155 14.625C12.9943 15.3076 12.3626 16.1765 11.5414 17.3556C11.2255 17.852 10.9097 18.3485 10.657 18.7829C9.33039 21.3273 9.1409 23.8096 9.89895 25.299C9.96212 25.4851 10.0885 25.6092 10.2148 25.7334C10.278 25.7954 10.3411 25.9196 10.4043 25.9816C7.75114 26.1057 5.28748 27.0986 3.70821 28.6501C3.26601 27.4089 1.81308 21.5755 4.52942 15.9903C6.10869 12.7633 8.57234 10.7154 11.0992 9.41215C13.626 8.04688 16.1529 7.42631 17.6689 7.05396C25.9443 4.944 34.1565 8.66747 36.4307 9.84657Z" fill="#FAA41A"/>
<path d="M34.7882 31.4425C34.1565 32.4354 33.3352 33.4283 32.3877 34.4213C28.8501 30.6978 24.8072 26.5399 21.3328 22.7544C18.6796 19.8997 16.5318 17.4174 13.8787 14.5627C14.9526 13.6939 16.1528 13.0734 18.1111 12.5769C20.3221 13.756 22.4699 15.866 24.1123 17.6036C28.9133 22.7544 31.6928 26.664 34.7882 31.4425Z" fill="#FAA41A"/>
<path d="M32.3878 34.4215C31.5034 35.3523 30.4295 36.1591 29.2292 36.8417C26.4497 34.5456 22.9753 31.5047 19.9431 28.526C16.1529 24.7404 13.4366 22.2581 10.7202 18.7829C10.9729 18.2864 11.2256 17.7899 11.6046 17.3555C12.4258 16.1764 13.1207 15.3076 13.8788 14.625C16.5319 17.4797 18.6797 19.962 21.3329 22.8166C24.8073 26.6022 28.8502 30.76 32.3878 34.4215Z" fill="#FAA41A"/>
<path d="M22.7227 36.5312C21.4593 35.7865 20.1327 34.8556 18.7429 33.8007C17.7322 32.9939 16.6583 32.1251 15.5844 31.0701C14.6368 30.1392 13.8788 29.4566 13.2471 28.9601C11.9205 27.8431 11.2887 27.3466 10.3412 26.0434H10.4044C10.3412 25.9814 10.278 25.9193 10.1517 25.7952C10.0253 25.6711 9.96217 25.4849 9.83582 25.3608C9.07777 23.8714 9.33047 21.3891 10.5939 18.8447C13.3102 22.32 16.0266 24.8023 19.8168 28.5878C22.849 31.5666 26.3234 34.6074 29.1029 36.9035C28.3449 37.2759 27.5868 37.5862 26.7024 37.8344C26.1339 37.9585 25.5654 38.0206 24.8073 37.8965C24.1756 37.4 23.4807 36.9656 22.7227 36.5312Z" fill="#FAA41A"/>
<path d="M26.26 13.4459C26.1337 13.5079 26.0074 13.57 25.881 13.6941L25.8178 13.7561C25.4388 13.3838 24.9966 13.0114 24.3018 12.3909C25.3125 12.6391 26.0074 13.1356 26.26 13.4459Z" fill="#D22B29"/>
<path d="M22.7226 36.5312C23.4806 37.0277 24.1755 37.4 24.8704 37.8345C24.0492 37.7103 23.1016 37.5242 21.7118 37.2139L21.6487 37.1518C22.0909 36.8415 22.4699 36.6554 22.7226 36.5312Z" fill="#D22B29"/>
<path d="M9.01457 45.9021C9.89896 39.7583 17.669 34.4834 18.7429 33.8008C20.1326 34.8558 21.4592 35.7246 22.7226 36.5313C22.4699 36.6555 22.0909 36.8416 21.6487 37.0899C20.638 37.6484 19.1851 38.5792 17.7953 39.5722C16.7214 40.3789 15.6475 41.3098 15.0158 42.2407C13.626 44.1645 13.7524 45.5918 14.4472 46.3365C15.0789 46.8329 16.0897 47.5776 17.5426 48.3844C16.216 50.9288 14.7631 52.4181 12.2363 51.9837C9.89895 51.5493 9.01459 49.9979 8.95142 47.2673C8.95142 46.8329 8.9514 46.3985 9.01457 45.9021Z" fill="#FAA41A"/>
<path d="M18.7429 33.8007C17.669 34.4833 9.96214 39.7582 9.01458 45.9019C8.13019 45.7158 6.10874 43.4817 6.10874 41.5579C6.04557 40.0685 6.61408 39.1376 7.81432 37.5862C9.07774 36.0347 12.3626 33.1801 15.5844 31.0081C16.6583 32.1251 17.7322 32.9939 18.7429 33.8007Z" fill="#FAA41A"/>
<path d="M13.2468 28.8982C13.8785 29.3947 14.5734 30.0773 15.5841 31.0082C12.3624 33.1802 9.07753 36.0348 7.81411 37.5863C6.61387 39.0757 6.04536 40.0065 6.10853 41.558C5.53999 40.9995 3.96072 40.0066 3.45535 37.6484C3.32901 37.0278 3.32901 36.4693 3.45535 35.9107C4.02389 33.2423 6.86656 31.0702 8.25631 30.3876C10.5936 29.3326 12.2993 29.0844 13.2468 28.8982Z" fill="#FAA41A"/>
<path d="M3.64496 28.6499C5.22423 27.0985 7.68788 26.1056 10.341 25.9814C11.2254 27.2847 11.9203 27.7811 13.2469 28.8982C12.2994 29.0843 10.5937 29.3326 8.25642 30.3875C6.86666 31.0081 3.96082 33.1802 3.45546 35.9107C2.44473 35.5384 1.68667 32.9319 2.12887 31.1943C2.38155 30.2634 2.95008 29.3946 3.64496 28.6499Z" fill="#FAA41A"/>
<path d="M10.4043 25.9814C10.278 25.9193 10.2148 25.8573 10.1516 25.7332C10.278 25.8573 10.3411 25.9193 10.4043 25.9814Z" fill="#D22B29"/>
<path d="M9.89893 25.2988C10.0253 25.485 10.0884 25.6091 10.2148 25.7332C10.0884 25.6091 9.9621 25.485 9.89893 25.2988Z" fill="#D22B29"/>
<path d="M52.855 32.7458C52.7918 32.4356 52.1601 30.6359 50.7071 28.7121C49.8227 27.595 48.6857 26.478 47.1064 25.5471C46.1588 24.9886 45.0849 24.5542 43.8215 24.1819C43.4425 24.0577 43.0003 23.9957 42.6213 23.9336C40.9788 23.6854 39.3364 23.8716 38.073 24.1198C37.2518 24.306 36.4937 24.4921 36.0515 24.6163" stroke="#EBE5D9" stroke-width="2.2" stroke-miterlimit="10"/>
<path d="M58.4139 30.8221C57.8454 29.581 55.0659 23.8096 47.6117 21.017C40.6629 18.3485 34.2195 20.3964 32.7666 20.8929" stroke="#EBE5D9" stroke-width="2.2" stroke-miterlimit="10"/>
<path d="M60.8146 27.657C60.1829 26.4158 56.519 18.9068 46.8539 16.3625C38.8312 14.2525 31.8192 17.2933 30.1768 18.1001" stroke="#EBE5D9" stroke-width="2.2" stroke-miterlimit="10"/>
<path d="M61.5727 25.2367C61.4463 24.9264 60.4987 22.6303 60.1829 22.0718C57.7824 17.8518 55.0661 14.7489 47.8646 12.4528C37.7573 9.28784 28.9766 15.3074 28.2185 15.866" stroke="#EBE5D9" stroke-width="2.2" stroke-miterlimit="10"/>
<path d="M61.5094 22.8166C61.1935 21.7616 60.6882 20.4584 59.9301 19.031C59.6143 18.4725 59.2984 17.914 58.9194 17.3555C58.6035 16.859 58.2245 16.4246 57.7823 15.9281C57.0875 15.1214 56.3294 14.4387 55.5714 13.8182C54.4343 12.9494 53.234 12.2047 52.0338 11.6461C50.5177 10.9015 49.0016 10.405 47.4855 10.0947C45.8431 9.72235 44.2638 9.53618 42.8109 9.47412C42.6213 9.47412 42.4318 9.47412 42.2423 9.47412C41.3579 9.47412 40.5367 9.47412 39.8418 9.47412C38.5784 9.53618 37.7572 9.66029 37.4413 9.72235C37.1255 9.78441 36.8097 9.84646 36.4306 9.90851C33.967 10.405 29.6713 11.522 26.2601 13.5699C26.1338 13.632 26.0074 13.6941 25.8811 13.8182" stroke="#EBE5D9" stroke-width="2.2" stroke-miterlimit="10"/>
<path d="M24.365 12.3289C25.0599 12.9494 25.5021 13.3838 25.8811 13.6941C26.7023 14.3768 27.0813 14.8112 28.1552 15.9282C28.4079 16.1764 28.7238 16.4867 29.0396 16.8591C29.4187 17.2314 29.7977 17.6658 30.1767 18.1002C31.0611 19.0311 31.8823 19.962 32.7035 20.9549C33.8406 22.2581 34.9145 23.5613 35.9252 24.8025C36.4306 25.361 36.8728 25.9816 37.315 26.5401" stroke="#EBE5D9" stroke-width="2.2" stroke-miterlimit="10"/>
<path d="M18.0479 12.5769C20.2588 13.756 22.4066 15.866 24.0491 17.6036C28.9132 22.7544 31.6296 26.664 34.7881 31.5046" stroke="#EBE5D9" stroke-width="2.2" stroke-miterlimit="10"/>
<path d="M13.8154 14.5627C16.4686 17.4174 18.6164 19.8997 21.2696 22.7544C24.8072 26.5399 28.8501 30.6978 32.3245 34.4213" stroke="#EBE5D9" stroke-width="2.2" stroke-miterlimit="10"/>
<path d="M10.657 18.7827C13.3733 22.258 16.0897 24.7403 19.8799 28.5258C22.9121 31.5046 26.3865 34.5454 29.166 36.8416" stroke="#EBE5D9" stroke-width="2.2" stroke-miterlimit="10"/>
<path d="M10.2148 25.7954C10.278 25.8575 10.3412 25.9816 10.4043 26.0436C11.2887 27.3469 11.9836 27.8433 13.3102 28.9604C13.9419 29.4568 14.6368 30.1395 15.6475 31.0703C16.7214 32.1253 17.7953 33.0562 18.8061 33.8009C20.1958 34.8559 21.5224 35.7247 22.7858 36.5314C23.5438 37.0279 24.2387 37.4002 24.9336 37.8346" stroke="#EBE5D9" stroke-width="2.2" stroke-miterlimit="10"/>
<path d="M9.89893 25.2988C10.0253 25.485 10.0884 25.6091 10.2148 25.7332" stroke="#EBE5D9" stroke-width="2.2" stroke-miterlimit="10"/>
<path d="M10.4044 25.9815C10.3412 25.9195 10.278 25.8574 10.1517 25.7333C10.0253 25.6092 9.96217 25.423 9.83582 25.2989C9.07777 23.8095 9.33047 21.3272 10.5939 18.7828C10.8466 18.2863 11.0993 17.7899 11.4783 17.3555C12.2995 16.1764 12.9944 15.3076 13.7524 14.6249C14.8263 13.7561 16.0266 13.1355 17.9849 12.6391C18.4902 12.515 19.1219 12.3288 19.7536 12.2047C21.5224 11.8323 23.1017 12.0185 24.3019 12.3908C25.2495 12.7011 25.9444 13.1355 26.1971 13.5079" stroke="#EBE5D9" stroke-width="2.2" stroke-miterlimit="10"/>
<path d="M3.70821 28.712C3.26601 27.4708 1.81308 21.6374 4.52942 16.0522C6.10869 12.8252 8.57234 10.7773 11.0992 9.47406C13.626 8.10878 16.1528 7.48819 17.6689 7.11585C26.0707 5.00588 34.2197 8.72937 36.4938 9.84641" stroke="#EBE5D9" stroke-width="2.2" stroke-miterlimit="10"/>
<path d="M35.1672 3.14429C36.3675 3.64075 37.2519 4.19928 37.2519 4.19928C39.7155 5.75073 41.4843 8.23303 42.2423 9.35007" stroke="#EBE5D9" stroke-width="2.2" stroke-miterlimit="10"/>
<path d="M21.0801 3.70279C21.9013 3.14427 27.713 0.97225 33.6511 2.58575C34.2196 2.70987 34.725 2.9581 35.2303 3.14427" stroke="#EBE5D9" stroke-width="2.2" stroke-miterlimit="10"/>
<path d="M11.0359 9.47403C12.9942 5.37822 18.1742 4.13706 20.322 3.88883C20.5747 3.88883 20.8273 3.82676 21.08 3.7647C23.7332 3.45442 28.3447 2.89591 33.8405 5.19205C36.3673 6.24703 38.7679 8.48111 39.9049 9.47403" stroke="#EBE5D9" stroke-width="2.2" stroke-miterlimit="10"/>
<path d="M35.1672 3.14414C35.6726 3.08208 38.8311 3.14414 40.5368 3.70266C42.3687 4.32324 44.1375 5.62646 44.3902 6.06087" stroke="#EBE5D9" stroke-width="2.2" stroke-miterlimit="10"/>
<path d="M42.7478 9.288V9.22595C42.9373 8.72949 43.4427 7.36422 44.3902 6.12306C45.0219 5.31631 45.8431 4.50955 46.7907 4.1372C47.4856 3.88897 49.0649 3.20633 50.3283 4.01308C51.0863 4.50954 51.339 5.3163 51.4654 5.68865" stroke="#EBE5D9" stroke-width="2.2" stroke-miterlimit="10"/>
<path d="M47.4224 10.0947C47.675 9.47416 48.6226 7.17802 50.265 6.30921C50.5809 6.12303 51.0231 5.8748 51.5285 5.75069C52.0338 5.62657 52.6655 5.56452 53.2341 5.81275C54.4975 6.37127 54.8765 7.7986 54.9397 7.98478" stroke="#EBE5D9" stroke-width="2.2" stroke-miterlimit="10"/>
<path d="M51.9707 11.646C52.0339 11.3357 52.9814 9.10166 54.0553 8.41902C54.308 8.23285 54.6239 8.10873 55.0029 8.04667C55.9505 7.79844 57.0243 7.92257 57.7192 8.60521C58.4141 9.28784 58.5405 10.9634 58.5405 11.2737" stroke="#EBE5D9" stroke-width="2.2" stroke-miterlimit="10"/>
<path d="M55.5081 13.818C55.5712 13.6939 57.1505 11.8942 58.5403 11.2737C58.793 11.1496 59.0456 11.0875 59.2351 11.0875C61.762 10.8393 63.2149 12.5769 62.899 14.3145C62.7727 14.9971 61.9515 15.8659 61.0039 16.4865C60.309 16.983 59.4878 17.3553 58.8561 17.4174" stroke="#EBE5D9" stroke-width="2.2" stroke-miterlimit="10"/>
<path d="M61.0671 16.4246C61.8251 16.859 64.8573 20.3342 65.5522 23.8715C65.6785 24.5541 65.7417 25.2368 65.6785 25.9815C65.5522 29.5188 63.6571 33.4905 60.8144 35.104C57.5927 36.9037 53.8656 37.3381 52.9812 37.0278" stroke="#EBE5D9" stroke-width="2.2" stroke-miterlimit="10"/>
<path d="M65.805 26.0435C67.0052 26.664 68.3318 29.7669 67.8264 32.6216C67.5737 33.8628 67.1316 34.9798 66.4999 35.9727C65.2996 37.8965 63.4677 39.3859 61.383 40.1926C57.4033 41.682 53.234 40.7512 52.6023 40.4409" stroke="#EBE5D9" stroke-width="2.2" stroke-miterlimit="10"/>
<path d="M62.836 44.1025C60.0565 45.5919 55.6977 45.5919 51.6548 43.8542" stroke="#EBE5D9" stroke-width="2.2" stroke-miterlimit="10"/>
<path d="M66.4998 35.9729C66.3735 40.2549 65.1101 42.0546 64.6047 42.6751C64.1625 43.2337 63.5308 43.7302 62.8359 44.1025" stroke="#EBE5D9" stroke-width="2.2" stroke-miterlimit="10"/>
<path d="M62.8361 44.1023C62.5202 44.9711 61.3831 47.9499 58.9827 49.3772C56.14 51.0528 51.8444 50.6804 48.749 48.3843" stroke="#EBE5D9" stroke-width="2.2" stroke-miterlimit="10"/>
<path d="M52.8551 32.7458C53.0446 33.5526 53.1077 35.1661 52.9814 37.0278C52.9182 38.0828 52.7919 39.2619 52.5392 40.379C52.4129 41.0616 52.2233 41.7442 52.0338 42.4269C51.9706 42.6751 51.7812 43.1716 51.5916 43.7301C51.0863 44.9092 50.265 46.6468 48.8121 48.3224C47.7382 49.5015 46.4116 50.6806 44.6429 51.5494C38.1363 54.8385 31.1243 51.5494 30.4294 51.2391" stroke="#EBE5D9" stroke-width="2.2" stroke-miterlimit="10"/>
<path d="M50.6441 28.7122C50.4546 30.8842 49.8229 37.2141 47.0434 41.3099C46.6644 41.8684 40.8526 50.3083 30.3663 51.2392C29.7978 51.3012 29.2292 51.3012 28.5975 51.3012C23.9229 51.3012 20.0695 49.8118 17.5426 48.3845C16.0897 47.5777 15.0158 46.771 14.4473 46.3366" stroke="#EBE5D9" stroke-width="2.2" stroke-miterlimit="10"/>
<path d="M47.0432 25.6091C46.8537 27.4709 46.5378 31.6908 44.8954 34.9178C44.4532 35.7866 38.5152 47.0191 27.4603 47.2053C22.2171 47.2673 17.0371 43.8541 15.0156 42.3027" stroke="#EBE5D9" stroke-width="2.2" stroke-miterlimit="10"/>
<path d="M42.5581 23.9956C41.8001 29.3946 39.2733 34.111 38.0099 35.7245C34.725 39.8824 28.9764 44.1023 22.6594 42.613C20.7011 42.1786 18.5533 40.565 17.8584 39.5721" stroke="#EBE5D9" stroke-width="2.2" stroke-miterlimit="10"/>
<path d="M38.0098 24.1199V24.1819C37.8203 24.7404 37.5676 25.5472 37.3149 26.4781C36.9359 27.5951 36.4937 28.8983 35.7988 29.8912C35.483 30.3877 35.1671 30.8842 34.7881 31.4427C34.1564 32.4356 33.3351 33.4285 32.3876 34.4215C31.5032 35.3523 30.4293 36.1591 29.229 36.8417C28.471 37.2141 27.713 37.5244 26.8286 37.7726C26.26 37.8967 25.6915 37.9588 24.9334 37.8346C24.1122 37.7105 23.1647 37.5244 21.7749 37.2141" stroke="#EBE5D9" stroke-width="2.2" stroke-miterlimit="10"/>
<path d="M17.5426 48.4465C16.216 50.9908 14.7631 52.4802 12.2363 52.0458C9.89895 51.6114 9.01459 50.0599 8.95142 47.3294C8.95142 46.8329 8.9514 46.3985 9.01457 45.9021C9.89896 39.7583 17.669 34.4834 18.7429 33.8008" stroke="#EBE5D9" stroke-width="2.2" stroke-miterlimit="10"/>
<path d="M14.3841 46.3984C13.6892 45.6537 13.5629 44.2264 14.9526 42.3026C15.6475 41.3718 16.6582 40.4409 17.7321 39.6341C19.0587 38.5792 20.5748 37.7103 21.5856 37.1518C22.0278 36.9036 22.4068 36.7174 22.6594 36.5933C22.6594 36.5933 22.7226 36.5933 22.7226 36.5312" stroke="#EBE5D9" stroke-width="2.2" stroke-miterlimit="10"/>
<path d="M9.01458 45.9019C8.13019 45.7158 6.10874 43.4817 6.10874 41.5579C6.04557 40.0685 6.61408 39.1376 7.81432 37.5862C9.07774 36.0347 12.3626 33.1801 15.5844 31.0081" stroke="#EBE5D9" stroke-width="2.2" stroke-miterlimit="10"/>
<path d="M6.10853 41.558C5.53999 40.9995 3.96072 40.0066 3.45535 37.6484C3.32901 37.0278 3.32901 36.4693 3.45535 35.9107C4.02389 33.2423 6.86656 31.0702 8.25631 30.3876C10.5936 29.3326 12.2993 29.0844 13.2468 28.8982" stroke="#EBE5D9" stroke-width="2.2" stroke-miterlimit="10"/>
<path d="M3.45546 35.9107C2.44473 35.5383 1.68667 32.9319 2.12887 31.1943C2.38155 30.2634 2.88691 29.3946 3.64496 28.712C5.22423 27.1605 7.68788 26.1676 10.341 26.0435H10.4042" stroke="#EBE5D9" stroke-width="2.2" stroke-miterlimit="10"/>
<path d="M59.9301 19.031C60.3723 19.4654 61.1935 20.9548 61.5093 22.8165C61.6357 23.6233 61.6989 24.43 61.5725 25.2368C61.5094 25.7333 61.383 26.2918 61.1935 26.7882C61.0671 27.0985 60.9408 27.3468 60.8145 27.657C60.1828 29.0223 59.4247 30.0773 58.414 30.822C57.0874 31.877 55.3186 32.4355 52.855 32.7458" stroke="#EBE5D9" stroke-width="2.2" stroke-miterlimit="10"/>
</svg>
