<svg width="62" height="51" viewBox="0 0 62 51" fill="none" xmlns="http://www.w3.org/2000/svg">
<path d="M34.6748 37.1082C36.9987 37.042 40.9161 36.5787 43.1072 34.0633C46.6262 30.0254 45.2319 27.3114 44.4351 25.5904C43.7047 23.9355 42.1776 22.413 40.7169 21.0892C40.3185 20.692 39.8537 20.2948 39.3226 19.8315C38.7914 19.3681 38.2603 18.9709 37.7291 18.5076C37.5299 18.309 37.3307 18.1766 37.1979 17.978C39.9866 16.6541 43.5055 15.3964 46.095 15.7274C51.2739 16.3232 53.0666 19.7653 53.6642 20.8244C55.7225 24.2665 55.9217 28.4367 56.3864 27.7748C56.5192 29.0987 56.5192 30.224 56.4529 31.2831C56.1873 34.659 55.0585 37.1082 53.0666 39.8884C51.4067 42.2052 49.4148 43.8601 47.5557 45.0516C45.3647 46.4416 43.3728 47.1036 42.1112 47.5669C31.1558 51.34 21.794 46.574 20.3333 45.6473C23.2547 44.191 26.0433 42.2714 28.0352 40.9475C30.0271 39.5574 31.5542 38.2997 32.8157 37.1744C33.0813 37.1082 33.7453 37.1082 34.6748 37.1082Z" fill="#C77B3A"/>
<path d="M57.6481 40.9476C55.3907 44.5221 50.2117 45.7136 47.5559 45.0517L47.4895 44.9855C49.3486 43.794 51.3405 42.2053 53.0004 39.8223C54.9923 36.976 56.1874 34.593 56.3866 31.217C59.3744 33.7324 58.9097 39.028 57.6481 40.9476Z" fill="#C77B3A"/>
<path d="M14.6233 22.9428C11.7019 18.8387 11.4363 12.1531 13.5609 10.101C15.8184 7.98281 20.1342 9.04192 23.8524 10.2996C24.5827 10.5644 25.3795 10.8292 26.0434 11.0939C27.3714 11.5573 29.9609 12.6164 33.5463 15.0656C33.8782 15.2642 35.8701 16.7867 37.7956 18.3753C38.5923 19.1697 39.6547 20.0302 40.717 20.9569C41.7794 22.016 42.6425 23.1413 44.4352 25.4582C45.232 27.2454 46.6263 29.9594 43.1073 33.931C40.8498 36.4464 36.9988 36.9098 34.675 36.976C34.7414 36.314 34.7414 35.7183 34.7414 35.1225C34.6086 33.2029 33.6126 31.6142 30.9568 29.3636C28.4337 27.3116 26.2426 26.5173 24.3172 26.2525C22.1261 25.9215 20.267 26.1201 18.6735 25.7891C17.9431 25.4582 17.2128 25.061 16.6152 24.73C16.084 24.399 15.4864 23.8695 15.0881 23.4061C14.9553 23.3399 14.7561 23.1413 14.6233 22.9428Z" fill="#C77B3A"/>
<path d="M44.5017 25.5244C42.709 23.1414 41.8458 22.0823 40.7834 21.0232C42.2442 22.4133 43.7049 23.9357 44.5017 25.5244Z" fill="#C1E7F2"/>
<path d="M39.3228 19.7653C39.8539 20.2287 40.3187 20.6258 40.7171 21.023C39.6548 20.0963 38.5924 19.1695 37.7957 18.4414C38.3268 18.8386 38.858 19.3019 39.3228 19.7653Z" fill="#C1E7F2"/>
<path d="M37.2644 17.912C37.3971 18.1106 37.5963 18.243 37.7955 18.4416C35.8036 16.7867 33.8782 15.3305 33.5462 15.1319C29.9608 12.6827 27.4377 11.6898 26.0434 11.1602C25.3794 10.8954 24.5827 10.6307 23.8523 10.3659C24.5163 9.90252 26.2426 8.84341 28.5 7.7181C32.8822 5.40129 39.3891 2.68732 44.5016 3.21688C47.755 3.54785 55.125 4.27599 58.3784 10.2997C61.0342 15.1319 60.4367 22.6119 56.5193 27.775C56.0545 28.3708 55.8553 24.2005 53.797 20.8246C53.1995 19.8317 51.4732 16.3896 46.2279 15.7276C43.572 15.3305 40.053 16.5882 37.2644 17.912Z" fill="#C77B3A"/>
<path d="M32.8159 37.1083C33.4799 36.4464 34.0774 35.8506 34.675 35.321H34.7414C34.8078 35.9168 34.7414 36.5125 34.675 37.1745C33.7455 37.1083 33.0815 37.1083 32.8159 37.1083Z" fill="#C1E7F2"/>
<path d="M11.5691 33.6661C14.0258 32.5408 17.8104 30.6212 19.8023 29.4297C21.1302 28.6353 21.9933 28.1058 22.8565 27.51C23.3212 27.1791 23.786 26.8481 24.3172 26.4509C26.2427 26.7819 28.5002 27.51 30.9568 29.5621C33.6127 31.8127 34.6086 33.3352 34.7414 35.321H34.675C34.1438 35.9167 33.5463 36.5125 32.8159 37.1082C31.5544 38.2997 30.0273 39.5574 28.0354 40.8813C26.0435 42.2714 23.2549 44.1249 20.3334 45.5811C16.6152 47.4346 12.5651 48.4937 9.64362 46.7726C5.12868 44.0587 1.67605 34.659 9.90919 32.3422C10.374 32.8056 10.9715 33.2028 11.5691 33.6661Z" fill="#C77B3A"/>
<path d="M18.6733 25.9214C20.2669 26.2524 22.1259 26.0538 24.317 26.3847C23.7859 26.7819 23.3211 27.1129 22.8563 27.4439C22.3915 27.3777 20.466 26.7819 18.6733 25.9214Z" fill="#C1E7F2"/>
<path d="M18.6734 25.9215C20.4661 26.782 22.3916 27.3777 22.8564 27.4439C21.9932 28.0397 21.1301 28.6354 19.8022 29.3636C17.8103 30.5551 14.0257 32.4747 11.569 33.6C10.9715 33.2029 10.4403 32.7395 9.90912 32.2761C1.74238 25.1933 0.414454 13.5431 3.93346 8.11515C7.31967 2.81959 14.6896 1.62809 19.4038 2.09145C23.5868 2.48862 27.637 4.93782 28.5665 7.65179C26.309 8.84329 24.5827 9.9024 23.9188 10.2996C20.2006 8.97568 15.8848 7.91657 13.6273 10.101C11.5027 12.153 11.7682 18.7725 14.6897 22.9427V23.0089C14.8225 23.2075 14.9552 23.3399 15.088 23.5385C15.5528 24.068 16.084 24.5314 16.6152 24.8624C17.2127 25.1933 17.9431 25.5905 18.6734 25.9215Z" fill="#C77B3A"/>
<path d="M28.4337 7.65179C27.5042 4.93782 23.454 2.48862 19.2711 2.09145C14.5569 1.62809 7.1869 2.81959 3.80068 8.11515C0.348077 13.5431 1.60961 25.1933 9.77635 32.2761C10.3075 32.7395 10.9051 33.2029 11.4363 33.6" stroke="#363634" stroke-width="3" stroke-miterlimit="10"/>
<path d="M14.6233 22.9428C11.7019 18.8387 11.4363 12.1531 13.5609 10.101C15.8184 7.98281 20.1342 9.04192 23.8524 10.2996C24.5827 10.5644 25.3795 10.8292 26.0434 11.0939C27.3714 11.5573 29.9609 12.6164 33.5463 15.0656C33.8782 15.2642 35.8701 16.7867 37.7956 18.3753C38.3268 18.8387 38.8579 19.2359 39.3891 19.6992C39.9203 20.1626 40.385 20.5598 40.7834 20.9569C41.8458 22.016 42.7089 23.1413 44.5016 25.4582" stroke="#363634" stroke-width="3" stroke-miterlimit="10"/>
<path d="M15.0881 23.5383C14.9553 23.3398 14.8225 23.2074 14.6897 23.0088" stroke="#363634" stroke-width="3" stroke-miterlimit="10"/>
<path d="M23.8523 10.3659C24.5163 9.90252 26.2426 8.84341 28.5 7.7181C32.8822 5.40129 39.3891 2.68732 44.5016 3.21688C47.755 3.54785 55.125 4.27599 58.3784 10.2997C61.0342 15.1319 60.4367 22.6119 56.5193 27.775C56.0545 28.3708 55.8553 24.2005 53.797 20.8246C53.1995 19.8317 51.4732 16.3896 46.2279 15.7276C43.6384 15.3967 40.1194 16.7205 37.3307 17.9782" stroke="#363634" stroke-width="3" stroke-miterlimit="10"/>
<path d="M20.3335 45.5812C21.7942 46.508 31.1561 51.274 42.1115 47.5009C43.373 47.1037 45.4313 46.3756 47.556 44.9855C49.4151 43.794 51.407 42.2053 53.0669 39.8223C55.0587 36.976 56.2539 34.593 56.4531 31.217C56.5195 30.1579 56.5195 28.9664 56.3867 27.7087" stroke="#363634" stroke-width="3" stroke-miterlimit="10"/>
<path d="M24.3172 26.3848C23.786 26.7819 23.3213 27.1129 22.8565 27.4439C21.9933 28.0396 21.1302 28.6354 19.8023 29.3635C17.8104 30.555 14.0258 32.4747 11.5691 33.6C11.0379 33.8647 10.5732 34.0633 10.1748 34.1957" stroke="#363634" stroke-width="3" stroke-miterlimit="10"/>
<path d="M34.6086 35.2549C34.0774 35.8506 33.4799 36.4464 32.7495 37.0421C31.488 38.2336 29.9609 39.4913 27.969 40.8152C25.9771 42.2053 23.1885 44.0587 20.267 45.515C16.5488 47.3685 12.4986 48.4276 9.57719 46.7065C5.06225 43.9925 1.60966 34.5929 9.8428 32.2761" stroke="#363634" stroke-width="3" stroke-miterlimit="10"/>
<path d="M18.6072 25.9214C18.6736 25.9214 18.6736 25.9214 18.6072 25.9214ZM18.6072 25.9214C20.2007 26.3186 22.0598 26.0538 24.2509 26.3847C26.1764 26.7157 28.4338 27.4439 30.8905 29.4959C33.5463 31.7465 34.5423 33.269 34.675 35.2548C34.7414 35.8506 34.6751 36.4463 34.6087 37.1083V37.1744" stroke="#363634" stroke-width="3" stroke-miterlimit="10"/>
<path d="M37.2645 17.9119C37.3973 18.1104 37.5965 18.2428 37.7956 18.4414C38.5924 19.2358 39.6548 20.0963 40.7171 21.023C42.2442 22.4131 43.7049 23.9356 44.4353 25.5242C45.232 27.3115 46.6263 30.0255 43.1073 33.9971C40.8499 36.5125 36.9989 36.9759 34.675 37.0421C33.7455 37.0421 33.0815 37.0421 32.8159 37.0421" stroke="#363634" stroke-width="3" stroke-miterlimit="10"/>
<path d="M56.453 31.217C59.3745 33.7324 58.9097 39.028 57.6482 40.9476C55.3907 44.5221 50.2118 45.7136 47.5559 45.0517" stroke="#363634" stroke-width="3" stroke-miterlimit="10"/>
<path d="M22.8564 27.444C22.3916 27.3778 20.4661 26.7821 18.6734 25.9215C17.9431 25.5906 17.2127 25.1934 16.6152 24.8624C16.084 24.5315 15.4864 24.0019 15.088 23.5385C14.9552 23.34 14.7561 23.1414 14.6897 23.009C14.6897 23.009 14.6897 23.009 14.6897 22.9428C14.6233 22.8104 14.5569 22.678 14.4905 22.6118" stroke="#363634" stroke-width="3" stroke-miterlimit="10"/>
</svg>
