<svg width="79" height="68" viewBox="0 0 79 68" fill="none" xmlns="http://www.w3.org/2000/svg">
<path d="M61.1209 12.6253C68.3654 25.2249 59.4032 35.7492 65.4527 48.9417C66.9464 52.1286 69.8591 56.6497 76.1326 61.0224L70.7553 66.0623C60.0007 57.539 56.1917 49.4605 54.8474 43.5313C51.7107 30.1906 58.731 20.3333 52.3081 14.1076C49.0967 10.9948 42.5244 8.6231 38.3421 11.2171C32.2179 15.0711 30.7242 21.3709 31.1724 28.1895C31.3217 30.7094 32.5914 33.1552 32.8901 33.5999C32.9648 33.7481 33.0395 33.8963 33.1142 34.0446C33.1888 34.1928 33.2635 34.2669 33.3382 34.4151C35.056 37.2315 37.2218 38.7879 38.3421 39.455C38.118 39.9738 38.3421 40.2702 33.3382 41.9008C31.8445 42.4196 30.4255 42.716 29.1559 42.9384V42.7901C22.8077 38.5656 18.0278 33.2293 18.0278 25.5954C18.0278 20.7039 19.895 11.7359 30.3508 5.13969C32.0686 4.02797 35.8775 2.76801 40.1345 2.24921C44.1675 1.7304 48.4992 1.95275 51.9347 3.58328C57.4614 6.25142 60.15 10.9207 61.1209 12.6253Z" fill="#C3473D"/>
<path d="M46.9312 38.5655C49.6945 42.4194 46.259 49.3121 44.0932 52.6473C42.3007 55.3896 34.0854 63.1716 25.3473 63.2458C22.0612 63.2458 18.4763 62.6528 15.4142 59.0212C12.5762 55.5378 12.6509 52.3508 12.7256 50.9427C15.5636 52.2026 18.1029 52.7214 18.9244 52.8697C23.1068 53.759 26.3929 53.1661 27.3638 53.0179C35.7285 51.2391 39.0893 41.3818 39.0893 39.8995C39.0893 39.7513 39.0893 39.5289 39.0893 39.3807C38.9399 38.0466 38.4171 36.9349 37.5209 35.9714C36.6247 35.0079 34.6829 34.6374 33.3386 34.415C33.2639 34.2668 33.1892 34.1927 33.1145 34.0444C35.2057 35.7491 44.0185 34.4891 46.9312 38.5655Z" fill="#C3473D"/>
<path d="M39.0892 39.3808C39.0892 39.5291 39.0892 39.6773 39.0892 39.8997C39.0892 41.382 35.7283 51.2393 27.3636 52.9439C26.3927 53.1662 23.1066 53.7592 18.9243 52.7957C18.1027 52.6474 15.6381 52.1286 12.7254 50.8687C8.76714 49.164 4.21137 46.0512 2.64299 40.5667C0.999925 34.8598 3.01641 26.8554 9.88741 23.6685C9.88741 24.039 9.88741 24.3355 9.88741 24.632C9.9621 32.2658 11.9039 36.7127 13.6217 38.862C13.6963 38.9362 13.771 39.0844 13.9204 39.1585C15.7128 41.1596 20.7914 44.3466 29.1561 42.9384C30.5004 42.716 31.8447 42.3454 33.3384 41.9008C38.3423 40.2702 38.1183 39.9738 38.3423 39.455L39.0892 39.3808Z" fill="#C3473D"/>
<path d="M39.0891 39.3807L38.3423 39.4549C37.222 38.7878 35.0561 37.2314 33.3384 34.415C34.608 34.7115 36.6245 35.0821 37.5207 35.9715C38.3423 36.935 38.9397 38.1208 39.0891 39.3807Z" fill="#C3473D"/>
<path d="M13.6962 38.862C11.9784 36.7126 10.0366 32.1916 9.96191 24.6319C9.96191 24.3354 9.96191 24.039 9.96191 23.6684C9.96191 20.3332 10.2607 14.5522 14.5924 9.66064C19.6709 3.87967 29.9774 -0.122541 40.2092 2.32326C35.9522 2.84206 32.1433 4.10202 30.4255 5.21374C19.895 11.8841 18.1026 20.7779 18.1026 25.6695C18.1026 33.3033 22.8824 38.6396 29.2306 42.8642V43.0124C20.8659 44.4206 15.7873 41.2337 13.9949 39.2325C13.8455 39.0843 13.7708 39.0102 13.6962 38.862Z" fill="#C3473D"/>
<path d="M38.3421 39.4549C37.2219 38.7879 35.056 37.2314 33.3383 34.4151C33.2636 34.2668 33.1889 34.1927 33.1142 34.0445C33.0395 33.8963 32.9648 33.748 32.8901 33.5998C32.6661 33.081 31.3965 30.7093 31.1724 28.1894C30.7243 21.3708 32.1433 15.071 38.3421 11.2171C42.5245 8.62304 49.0221 10.9947 52.3082 14.1076C58.6564 20.3332 51.636 30.1164 54.8475 43.5312C56.2665 49.4604 60.0007 57.539 70.9047 65.9881L76.282 60.9483C69.9338 56.6496 67.0958 52.1286 65.6021 48.8675C59.5526 35.675 68.4401 25.1507 61.2704 12.5511C60.2995 10.9206 57.6108 6.17724 52.0841 3.58322C48.6486 1.95269 44.3169 1.80446 40.2839 2.24915C36.0269 2.76795 32.218 4.02791 30.5002 5.13963C19.9697 11.81 18.1772 20.7038 18.1772 25.5954C18.1772 33.2292 22.9571 38.5655 29.3053 42.7901" stroke="#EBE5D9" stroke-width="3" stroke-miterlimit="10"/>
<path d="M13.6962 38.862C11.9784 36.7126 10.0366 32.1916 9.96191 24.6319C9.96191 24.3354 9.96191 24.039 9.96191 23.6684C9.96191 20.3332 10.2607 14.5522 14.5924 9.66064C19.6709 3.87967 29.9774 -0.122541 40.2092 2.32326H40.2839" stroke="#EBE5D9" stroke-width="3" stroke-miterlimit="10"/>
<path d="M38.3422 39.4548C38.1181 39.9736 38.3422 40.2701 33.3383 41.9006C31.8446 42.4194 30.4256 42.7159 29.1559 42.9382C20.7913 44.3464 15.7127 41.1595 13.9203 39.1583C13.8456 39.0101 13.6962 38.936 13.6215 38.8619C13.5468 38.7878 13.4721 38.6395 13.3975 38.5654" stroke="#EBE5D9" stroke-width="3" stroke-miterlimit="10"/>
<path d="M33.3384 34.4151C34.6081 34.7116 36.6246 35.0822 37.5208 35.9716C38.3423 36.9351 38.9398 38.0468 39.0892 39.3808C39.0892 39.5291 39.0892 39.6773 39.0892 39.8997C39.0892 41.382 35.7283 51.2393 27.3636 52.9439C26.3927 53.1662 23.1066 53.7592 18.9243 52.7957C18.1027 52.6474 15.6381 52.1286 12.7254 50.8687C8.76714 49.164 4.21137 46.0512 2.64299 40.5667C0.999925 34.8598 3.01641 26.8554 9.88741 23.6685" stroke="#EBE5D9" stroke-width="3" stroke-miterlimit="10"/>
<path d="M33.1145 34.0444C35.131 35.7491 43.9438 34.4891 46.9312 38.5655C49.6945 42.4194 46.259 49.3121 44.0932 52.6473C42.3007 55.3896 34.0854 63.1716 25.3473 63.2458C22.0612 63.2458 18.4763 62.6528 15.4142 59.0212C12.5762 55.5378 12.6509 52.3508 12.7256 50.9427" stroke="#EBE5D9" stroke-width="3" stroke-miterlimit="10"/>
</svg>
