<svg width="79" height="69" viewBox="0 0 79 69" fill="none" xmlns="http://www.w3.org/2000/svg">
<path d="M61.1209 13.1549C68.3654 25.7544 59.4032 36.2788 65.4527 49.4712C66.9464 52.6582 69.8591 57.1792 76.1326 61.552L70.7553 66.5918C60.0007 58.0686 56.1917 49.99 54.8474 44.0608C51.7107 30.7201 58.731 20.8628 52.3081 14.6372C49.0967 11.5243 42.5244 9.15264 38.3421 11.7467C32.2179 15.6007 30.7242 21.9004 31.1724 28.719C31.3217 31.2389 32.5914 33.6847 32.8901 34.1294C32.9648 34.2776 33.0395 34.4259 33.1142 34.5741C33.1888 34.7223 33.2635 34.7964 33.3382 34.9447C35.056 37.7611 37.2218 39.3175 38.3421 39.9845C38.118 40.5033 38.3421 40.7998 33.3382 42.4303C31.8445 42.9491 30.4255 43.2456 29.1559 43.4679V43.3197C22.8077 39.0951 18.0278 33.7588 18.0278 26.125C18.0278 21.2334 19.895 12.2655 30.3508 5.66923C32.0686 4.55751 35.8775 3.29755 40.1345 2.77875C44.1675 2.25994 48.4992 2.48229 51.9347 4.11282C57.4614 6.78096 60.15 11.4502 61.1209 13.1549Z" fill="#C3473D"/>
<path d="M46.9312 39.095C49.6945 42.949 46.259 49.8417 44.0932 53.1769C42.3007 55.9191 34.0854 63.7012 25.3473 63.7753C22.0612 63.7753 18.4763 63.1824 15.4142 59.5507C12.5762 56.0673 12.6509 52.8804 12.7256 51.4722C15.5636 52.7322 18.1029 53.251 18.9244 53.3992C23.1068 54.2886 26.3929 53.6957 27.3638 53.5474C35.7285 51.7687 39.0893 41.9114 39.0893 40.4291C39.0893 40.2808 39.0893 40.0585 39.0893 39.9103C38.9399 38.5762 38.4171 37.4645 37.5209 36.501C36.6247 35.5375 34.6829 35.1669 33.3386 34.9445C33.2639 34.7963 33.1892 34.7222 33.1145 34.574C35.2057 36.2786 44.0185 35.0187 46.9312 39.095Z" fill="#C3473D"/>
<path d="M39.0892 39.9104C39.0892 40.0586 39.0892 40.2068 39.0892 40.4292C39.0892 41.9115 35.7283 51.7688 27.3636 53.4734C26.3927 53.6958 23.1066 54.2887 18.9243 53.3252C18.1027 53.177 15.6381 52.6582 12.7254 51.3982C8.76714 49.6936 4.21137 46.5807 2.64299 41.0962C0.999925 35.3894 3.01641 27.3849 9.88741 24.198C9.88741 24.5686 9.88741 24.865 9.88741 25.1615C9.9621 32.7953 11.9039 37.2422 13.6217 39.3916C13.6963 39.4657 13.771 39.6139 13.9204 39.688C15.7128 41.6891 20.7914 44.8761 29.1561 43.4679C30.5004 43.2456 31.8447 42.875 33.3384 42.4303C38.3423 40.7998 38.1183 40.5033 38.3423 39.9845L39.0892 39.9104Z" fill="#C3473D"/>
<path d="M39.0891 39.9103L38.3423 39.9844C37.222 39.3174 35.0561 37.761 33.3384 34.9446C34.608 35.241 36.6245 35.6116 37.5207 36.501C38.3423 37.4645 38.9397 38.6503 39.0891 39.9103Z" fill="#C3473D"/>
<path d="M13.6962 39.3915C11.9784 37.2422 10.0366 32.7212 9.96191 25.1614C9.96191 24.865 9.96191 24.5685 9.96191 24.1979C9.96191 20.8628 10.2607 15.0818 14.5924 10.1902C19.6709 4.40921 29.9774 0.407 40.2092 2.8528C35.9522 3.3716 32.1433 4.63156 30.4255 5.74328C19.895 12.4136 18.1026 21.3074 18.1026 26.199C18.1026 33.8329 22.8824 39.1692 29.2306 43.3937V43.542C20.8659 44.9501 15.7873 41.7632 13.9949 39.7621C13.8455 39.6139 13.7708 39.5397 13.6962 39.3915Z" fill="#C3473D"/>
<path d="M38.3421 39.9844C37.2219 39.3174 35.056 37.761 33.3383 34.9446C33.2636 34.7964 33.1889 34.7223 33.1142 34.574C33.0395 34.4258 32.9648 34.2776 32.8901 34.1294C32.6661 33.6105 31.3965 31.2389 31.1724 28.719C30.7243 21.9004 32.1433 15.6006 38.3421 11.7466C42.5245 9.15258 49.0221 11.5243 52.3082 14.6371C58.6564 20.8628 51.636 30.6459 54.8475 44.0608C56.2665 49.99 60.0007 58.0685 70.9047 66.5176L76.282 61.4778C69.9338 57.1791 67.0958 52.6581 65.6021 49.3971C59.5526 36.2046 68.4401 25.6802 61.2704 13.0807C60.2995 11.4501 57.6108 6.70679 52.0841 4.11276C48.6486 2.48223 44.3169 2.334 40.2839 2.77869C36.0269 3.29749 32.218 4.55745 30.5002 5.66918C19.9697 12.3395 18.1772 21.2333 18.1772 26.1249C18.1772 33.7588 22.9571 39.0951 29.3053 43.3196" stroke="#363634" stroke-width="3" stroke-miterlimit="10"/>
<path d="M13.6962 39.3915C11.9784 37.2422 10.0366 32.7212 9.96191 25.1614C9.96191 24.865 9.96191 24.5685 9.96191 24.1979C9.96191 20.8628 10.2607 15.0818 14.5924 10.1902C19.6709 4.40921 29.9774 0.407 40.2092 2.8528H40.2839" stroke="#363634" stroke-width="3" stroke-miterlimit="10"/>
<path d="M38.3422 39.9843C38.1181 40.5032 38.3422 40.7996 33.3383 42.4301C31.8446 42.949 30.4256 43.2454 29.1559 43.4678C20.7913 44.8759 15.7127 41.689 13.9203 39.6879C13.8456 39.5397 13.6962 39.4655 13.6215 39.3914C13.5468 39.3173 13.4721 39.1691 13.3975 39.095" stroke="#363634" stroke-width="3" stroke-miterlimit="10"/>
<path d="M33.3384 34.9447C34.6081 35.2411 36.6246 35.6117 37.5208 36.5011C38.3423 37.4646 38.9398 38.5763 39.0892 39.9104C39.0892 40.0586 39.0892 40.2068 39.0892 40.4292C39.0892 41.9115 35.7283 51.7688 27.3636 53.4734C26.3927 53.6958 23.1066 54.2887 18.9243 53.3252C18.1027 53.177 15.6381 52.6582 12.7254 51.3982C8.76714 49.6936 4.21137 46.5807 2.64299 41.0962C0.999925 35.3894 3.01641 27.3849 9.88741 24.198" stroke="#363634" stroke-width="3" stroke-miterlimit="10"/>
<path d="M33.1145 34.574C35.131 36.2786 43.9438 35.0187 46.9312 39.095C49.6945 42.949 46.259 49.8417 44.0932 53.1769C42.3007 55.9191 34.0854 63.7012 25.3473 63.7753C22.0612 63.7753 18.4763 63.1824 15.4142 59.5507C12.5762 56.0673 12.6509 52.8804 12.7256 51.4722" stroke="#363634" stroke-width="3" stroke-miterlimit="10"/>
</svg>
