<svg width="240" height="241" viewBox="0 0 240 241" fill="none" xmlns="http://www.w3.org/2000/svg">
<path d="M88.9045 89.8098H239.915" stroke="#363634" stroke-width="10.9974" stroke-miterlimit="10"/>
<path d="M88.2439 72.9915H163.114" stroke="#363634" stroke-width="10.9974" stroke-miterlimit="10"/>
<path d="M126.369 0L126.369 63.6031" stroke="#363634" stroke-width="10.9974" stroke-miterlimit="10"/>
<path d="M168.387 181.474L168.382 181.46L168.374 181.447C165.717 177.146 160.231 173.182 151.844 169.819C144.831 166.993 136.034 166.341 132.29 166.199C134.037 155.233 139.244 145.123 147.142 137.366C150.001 135.861 155.79 134.18 162.104 133.37C168.63 132.535 175.714 132.651 180.771 134.895C185.691 137.09 191.245 141.494 195.264 147.41C199.281 153.324 201.759 160.741 200.542 168.967C199.58 175.42 195.079 182.353 189.067 188.028C183.111 193.651 175.693 198.018 168.819 199.449C169.226 195.282 169.282 191.282 169.156 188.086C169.093 186.464 168.982 185.047 168.847 183.92C168.713 182.796 168.553 181.95 168.387 181.474Z" fill="#C3473D" stroke="#363634" stroke-width="0.281985"/>
<path d="M113.705 204.168L113.738 204.16L113.764 204.139C120.161 198.86 125.24 192.144 128.592 184.532L128.592 184.531C130.99 179 131.747 171.502 132.186 167.149C132.209 166.92 132.232 166.7 132.253 166.49C135.974 166.613 144.753 167.26 151.739 170.091L151.739 170.091C160.096 173.457 165.513 177.386 168.126 181.593C168.279 182.038 168.435 182.851 168.568 183.96C168.701 185.078 168.811 186.486 168.875 188.103C169.002 191.337 168.942 195.399 168.519 199.626L168.519 199.626C167.801 206.943 165.979 214.716 162.212 219.594C153.509 230.849 136.373 239.873 118.514 232.859L118.463 232.99L118.514 232.859C105.934 227.921 99.6304 215.106 99.9208 205.059C104.534 205.465 109.181 205.164 113.705 204.168Z" fill="#C3473D" stroke="#363634" stroke-width="0.281985"/>
<path d="M146.992 137.137L146.974 137.146L146.959 137.161C138.998 144.973 133.753 155.161 132.003 166.212C131.123 166.373 130.189 166.826 129.127 167.37C129.006 167.432 128.884 167.495 128.76 167.559C127.74 168.084 126.59 168.676 125.231 169.195C122.189 170.357 118.095 171.151 112.137 169.942C108.195 169.141 104.342 167.113 100.904 164.763C97.479 162.422 94.4741 159.767 92.2131 157.703C91.1038 154.95 90.0804 148.558 90.1198 141.179C90.1646 135.97 90.7617 130.278 92.2716 125.076C93.7817 119.872 96.2018 115.168 99.8851 111.922C110.257 102.784 127.47 100.733 139.954 107.546L139.954 107.547C145.922 110.787 151.004 116.108 154.807 121.183C158.518 126.134 161.003 130.84 161.904 133.127C155.615 133.947 149.877 135.621 146.992 137.137Z" fill="#C3473D" stroke="#363634" stroke-width="0.281985"/>
<path d="M91.9639 157.835L91.9758 157.864L91.9992 157.886C94.2651 159.963 97.291 162.642 100.745 165.003C104.198 167.363 108.087 169.41 112.081 170.214C118.094 171.435 122.242 170.635 125.332 169.455C126.706 168.93 127.87 168.331 128.889 167.806C129.013 167.742 129.135 167.679 129.255 167.618C130.288 167.088 131.16 166.667 131.966 166.502C131.941 166.744 131.915 166.997 131.888 167.261C131.438 171.642 130.684 178.982 128.333 184.404C125.004 191.966 119.962 198.637 113.611 203.885C109.074 204.88 104.412 205.171 99.7869 204.747L99.7858 204.746C85.6554 203.563 72.2088 196.404 66.9375 187.06C58.6901 172.397 64.91 146.953 89.8367 141.336C89.797 148.695 90.8383 155.069 91.9639 157.835Z" fill="#C3473D" stroke="#363634" stroke-width="0.281985"/>
<path d="M92.0944 157.782C90.9701 155.019 89.9393 148.587 89.9788 141.174C90.0686 130.738 92.371 118.354 99.7919 111.812C110.208 102.635 127.485 100.578 140.021 107.419C152.007 113.928 160.405 128.771 162.101 133.241" stroke="#363634" stroke-width="10.9974" stroke-miterlimit="10"/>
<path d="M132.126 166.334C133.854 155.271 139.092 145.068 147.058 137.25C148.557 135.784 150.137 134.404 151.792 133.117" stroke="#363634" stroke-width="10.9974" stroke-miterlimit="10"/>
<path d="M147.058 137.261C149.931 135.743 155.75 134.054 162.086 133.24C168.62 132.405 175.735 132.517 180.829 134.777C190.717 139.189 203.127 152.463 200.681 168.999C198.745 181.991 182.578 196.841 168.659 199.637" stroke="#363634" stroke-width="10.9974" stroke-miterlimit="10"/>
<path d="M132.126 166.334C135.772 166.446 144.698 167.075 151.792 169.95C160.168 173.323 165.621 177.272 168.254 181.521C169.136 182.889 169.737 184.421 170.021 186.026" stroke="#363634" stroke-width="10.9974" stroke-miterlimit="10"/>
<path d="M168.236 181.474C168.236 181.492 168.236 181.51 168.236 181.528C168.879 183.361 169.489 191.168 168.642 199.637C167.923 206.959 166.098 214.766 162.305 219.676C153.577 230.965 136.379 240.03 118.445 232.986C105.74 228 99.4075 215.022 99.7667 204.901" stroke="#363634" stroke-width="10.9974" stroke-miterlimit="10"/>
<path d="M113.675 204.03C109.113 205.034 104.425 205.328 99.774 204.901C85.6147 203.715 72.1163 196.541 66.8146 187.143C58.5066 172.372 64.8068 146.735 89.9788 141.174" stroke="#363634" stroke-width="10.9974" stroke-miterlimit="10"/>
<path d="M88.3948 154.538C89.1132 155.037 90.3991 156.245 92.0944 157.793C96.6238 161.944 104.174 168.489 112.109 170.087C124.08 172.517 128.592 166.898 132.126 166.341" stroke="#363634" stroke-width="10.9974" stroke-miterlimit="10"/>
<path d="M132.126 166.334C131.684 170.525 131.002 178.606 128.462 184.464C125.119 192.057 120.054 198.754 113.674 204.019C111.997 205.426 110.239 206.732 108.409 207.932" stroke="#363634" stroke-width="10.9974" stroke-miterlimit="10"/>
<path d="M37.4723 138.129C20.091 138.129 6 123.55 6 105.586C6 87.6215 20.091 73.042 37.4723 73.042H88.2439" stroke="#363634" stroke-width="10.9974" stroke-miterlimit="10"/>
<path d="M19.1787 170.673C36.5599 170.673 50.651 156.097 50.651 138.129C50.651 120.162 36.5599 105.586 19.1787 105.586" stroke="#363634" stroke-width="10.9974" stroke-miterlimit="10"/>
<path d="M37.4723 139.261C20.091 139.261 6 153.841 6 171.823C6 189.805 20.091 204.366 37.4723 204.366L97.5218 205.238" stroke="#363634" stroke-width="10.9974" stroke-miterlimit="10"/>
</svg>
